<?xml version="1.0" encoding="utf-8"?>
<!-- Generator: Adobe Illustrator 26.0.0, SVG Export Plug-In . SVG Version: 6.00 Build 0)  -->
<svg version="1.1" id="Layer_1" xmlns="http://www.w3.org/2000/svg" xmlns:xlink="http://www.w3.org/1999/xlink" x="0px" y="0px"
	 viewBox="0 0 1366 768" style="enable-background:new 0 0 1366 768;" xml:space="preserve">
<style type="text/css">
	.st0{clip-path:url(#SVGID_00000101084287004333716960000016403614423855018932_);}
	
		.st1{clip-path:url(#SVGID_00000158747528137894538730000012712844014315902336_);fill:none;stroke:#000000;stroke-width:6.8493;stroke-linecap:round;stroke-linejoin:round;stroke-miterlimit:27.293;}
	.st2{clip-path:url(#SVGID_00000158747528137894538730000012712844014315902336_);fill:#FFFFFF;}
	
		.st3{clip-path:url(#SVGID_00000158747528137894538730000012712844014315902336_);fill:none;stroke:#000000;stroke-width:4.5412;stroke-linecap:round;stroke-linejoin:round;stroke-miterlimit:27.293;}
	.st4{clip-path:url(#SVGID_00000158747528137894538730000012712844014315902336_);}
	
		.st5{clip-path:url(#SVGID_00000158747528137894538730000012712844014315902336_);fill:none;stroke:#000000;stroke-width:3.1826;stroke-linecap:round;stroke-linejoin:round;stroke-miterlimit:27.293;}
	.st6{clip-path:url(#SVGID_00000105420081399312561210000004341902300169328779_);}
	
		.st7{clip-path:url(#SVGID_00000180327357362483160990000015853103011031526299_);fill:url(#SVGID_00000177485254800837046940000000877110194565019562_);}
	
		.st8{clip-path:url(#SVGID_00000033332891232411609510000013399547320028752791_);fill:url(#SVGID_00000041281704486419868220000017523909486291082918_);}
	.st9{clip-path:url(#SVGID_00000057129926491688766480000018041563064396135042_);}
	
		.st10{clip-path:url(#SVGID_00000072986166307154066000000005909019876489631158_);fill:url(#SVGID_00000037682644690119613060000000761100686308644527_);}
	.st11{clip-path:url(#SVGID_00000026853618281285401000000005261404254819635349_);fill:#A3A3A3;}
	
		.st12{clip-path:url(#SVGID_00000098204696607913072320000004336419923301376403_);fill:url(#SVGID_00000026857845389220986230000000316196002543661954_);}
	.st13{clip-path:url(#SVGID_00000098906502110300139730000018043592759937200799_);fill:#080808;}
	.st14{clip-path:url(#SVGID_00000098906502110300139730000018043592759937200799_);fill:#A3A3A3;}
	.st15{fill:none;stroke:#000000;stroke-width:5;stroke-miterlimit:10;}
	.st16{fill:#FFFFFF;}
</style>
<path d="M169.6,332.44c-6.37,7-8.54,16.8-6.37,30.8c1.51,10,1.34,11-8.04,35.6c-11.22,29.6-18.26,43.21-25.8,51.01
	c-5.36,5.4-5.7,5.4-8.04,1.8c-2.68-4.4-1.68-14.8,2.18-22c2.35-4.2,3.69-4.8,8.54-3.6c7.04,1.4,7.2,0,0.67-4
	c-7.04-4.4-13.9-3.8-18.09,1.6c-8.88,11.2-7.04,27,3.69,32.4c18.26,9.2,28.64-2.2,42.88-47.61c4.86-15.4,6.7-19.4,7.71-16.6
	c2.18,6.8-13.9,53.41-20.94,60.41c-4.36,4.6-4.52,7.6-0.34,4.8c4.52-2.8,9.05-12.4,16.75-35c3.69-11,7.04-18.6,7.54-17
	c3.52,11.6,11.06,49.21,10.39,51.41c-1.17,3.6,3.69,0.6,7.71-4.8c2.85-3.8,16.75-47.21,24.29-75.61
	c7.54-28.4,14.91-40.41,23.79-38.41c4.36,1,11.89-2.2,11.89-5c0-0.8-2.51-1.6-5.53-1.6c-3.69,0-9.21,2.8-15.91,8
	c-12.4,9.4-15.24,15.6-27.47,57.61c-12.56,43.61-11.56,42.61-17.76,18c-8.21-32.2-8.04-29.8-1.34-48.41
	c3.35-9.4,6.03-19.8,5.86-23.6c0-6.2-0.17-6.2-2.18,2.6c-2.68,11.8-9.88,31.8-11.39,31.8c-2.51,0-1.17-6.4,3.85-18.2
	c5.86-14.2,6.2-24.6,0.34-29.2C175.29,327.04,174.45,327.24,169.6,332.44z"/>
<path d="M514.28,331.53c0.94,1.91,1.65,6.67,1.41,10.67c-0.47,7.62-6.11,27.63-8.47,29.53c-3.29,2.48-3.29-1.52-0.24-11.05
	c4.23-13.15,5.17-26.1,1.65-28.96c-6.82-5.53-29.63,8.38-32.21,20.01c-2.12,9.15-0.24,14.86,7.29,22.1l6.11,5.91l-6.11,17.72
	c-11.76,33.15-25.16,50.87-38.8,50.87c-12.7,0-13.17-4.38-2.59-31.82c17.64-45.35,20.46-68.97,9.88-80.41
	c-6.11-6.86-14.81-7.05-28.92-0.95c-21.87,9.72-28.69,20.77-17.87,28.96c6.82,5.14,11.29,5.34,18.34,0.38
	c4.47-2.86,4.94-3.62,1.65-3.81c-3.53,0-13.64-8.38-13.64-11.24c0-0.76,1.65-3.05,3.53-5.14c3.29-3.43,3.29-3.43,1.88,0.57
	c-1.65,5.34,8.47,13.91,16.22,13.91c4.7-0.19,4.23-0.57-2.35-2.86c-7.76-2.67-8.47-3.43-11.05-12.96c-1.41-5.14-1.18-5.34,7.52-4.76
	c7.52,0.57,9.64,1.71,12.93,7.24c8.23,13.34,5.17,35.63-11.05,76.98c-9.64,24.01-10.11,28.77-3.53,31.63
	c9.17,4,33.16-5.14,45.85-17.53c7.99-7.62,18.11-24.96,23.51-40.58c4.23-12.19,8.23-17.53,8.23-11.43c0,6.29-15.52,40.58-22.1,49.16
	c-4.94,6.29-5.17,6.86-1.18,3.24c6.82-6.29,19.52-28.77,23.51-41.73c2.12-7.05,4.7-10.67,7.99-11.62
	c18.58-5.72,25.87-9.15,33.16-15.81c4.7-4,7.76-7.81,7.05-8.38c-1.65-1.33-13.17,4.57-13.17,6.67c0,0.95-2.12,3.43-4.7,5.72
	c-4.7,4.19-19.52,5.91-21.87,2.67c-0.71-0.76,0.71-7.43,3.29-14.67c5.41-17.15,5.64-28.77,0.71-30.3
	C513.1,328.48,512.86,329.05,514.28,331.53z"/>
<path d="M637.04,331.79c-11.08,4.55-26.88,19.16-33.45,30.73c-2.87,5.12-5.95,9.11-7.18,9.11c-1.03,0-5.13-1.71-8.82-3.79
	c-6.98-3.98-11.49-11.95-10.05-17.45c1.23-3.98-2.26-4.36-7.18-0.95c-13.34,9.49-0.21,29.79,19.49,29.79c6.16,0,7.59,0.76,7.59,3.79
	c0,2.47-2.46,4.74-7.59,6.64c-22.37,8.73-33.86,33.77-23.19,49.9c6.16,9.3,19.9,14.23,38.99,14.42c13.54,0.19,17.24-0.57,29.14-6.07
	c7.59-3.41,15.8-8.54,18.26-11.38l4.31-5.12l-6.57-1.71c-5.75-1.52-7.18-1.14-13.95,4.93c-14.16,12.71-37.34,19.92-47.4,14.99
	c-6.36-3.23-12.52-13.28-12.52-20.68c0-13.28,11.7-29.22,26.88-36.43c6.36-3.04,7.18-4.36,6.36-9.11c-0.41-3.04,0.21-6.26,1.44-6.83
	c1.23-0.76,2.26,0,2.26,2.09c0,1.9,0.62,5.31,1.23,7.59c1.03,3.23,0.21,4.74-3.49,6.07c-14.57,5.5-27.09,19.16-29.55,32.25
	c-1.44,7.97,3.08,21.06,7.39,21.06c1.64,0,1.64-0.95-0.41-3.04c-4.1-4.55-3.08-19.54,1.85-28.65c4.72-8.54,17.24-18.97,24.62-20.68
	c4.1-1.14,4.51-1.9,3.28-10.24l-1.23-8.92l11.49-5.88c17.03-9.11,29.96-21.06,29.96-28.46c0-6.45-4.51-11.76-9.85-11.76
	C647.3,328,641.76,329.71,637.04,331.79z"/>
<path d="M771.24,336.18c-10.93,7.62-21.05,18.32-25.1,26.11c-2.02,3.81-3.44,4.72-6.68,3.81c-8.1-2.36-15.38-6.17-17.41-9.61
	c-2.63-4.72-2.63-17.59,0.2-22.49l2.43-3.99l-4.66,3.63c-9.51,7.62-12.95,20.67-7.89,30.65c2.63,5.08,12.95,10.16,20.44,10.16
	c2.83,0,5.47,0.54,6.07,1.09c0.81,0.54-3.04,10.52-8.5,22.13c-7.89,16.87-10.73,21.4-14.57,22.31
	c-14.78,3.45-22.67,11.24-21.46,20.67c1.42,11.79,14.98,9.79,22.87-3.26c2.23-3.63,5.26-6.71,6.68-6.71c3.44,0,3.04,1.63-2.63,10.7
	c-2.83,4.17-5.06,8.34-5.06,8.89c0,2.72,9.92-7.8,10.93-11.61c0.81-2.36,2.23-4.35,3.24-4.35c1.21,0,9.31,3.26,18.02,7.25
	c21.66,9.97,33.2,10.16,44.73,0.73c4.45-3.63,8.1-7.25,8.1-8.16c0-0.73-2.43,0.73-5.26,3.26c-4.45,3.99-6.48,4.53-13.56,3.63
	c-10.12-1.27-45.95-17.05-45.95-20.31c0-1.45,7.49,1.27,19.23,6.53c10.73,4.9,21.46,8.89,23.89,8.7c3.44,0,2.83-0.54-2.63-2.36
	c-8.91-2.9-30.16-12.69-35.02-15.96c-3.44-2.36-3.24-3.45,4.86-22.67c8.3-19.95,8.5-20.13,17.21-23.21
	c10.12-3.45,27.93-17.05,32.18-24.66C806.26,329.47,790.47,322.58,771.24,336.18z"/>
<path d="M855.64,331.01c-3.48,1.47-8.69,4.42-11.82,6.64c-4.52,3.5-5.39,5.35-5.39,11.43c0,14.93,12.86,20.64,29.21,12.72
	c8-3.87,10.08-6.64,2.61-3.5c-9.21,3.69-19.82-2.58-22.25-13.27c-2.61-10.87,11.82-11.61,31.81-1.47c9.74,5.16,10.6,5.9,8.87,9.4
	c-1.04,2.03-5.04,12.53-8.69,23.41c-12.34,35.39-19.64,52.16-26.42,60.27c-7.48,9.03-10.6,9.95-13.39,4.24
	c-2.43-4.61-0.87-12.9,3.65-18.98c2.96-4.06,4.17-4.42,8-2.76c5.04,2.03,7.82,0.55,4-2.21c-5.74-3.87-15.47-5.53-18.78-3.32
	c-5.22,3.32-9.04,11.61-9.04,18.8c0,11.98,16.17,21.2,27.99,16.04c9.74-4.42,18.25-20.28,32.68-61.56
	c10.26-29.31,11.65-32.44,14.43-32.44c2.09,0,1.91,0.55-6.95,25.8c-12.69,36.13-19.64,51.43-27.99,61.38l-8,9.4l6.08-3.69
	c9.91-5.9,18.43-23.96,38.25-80.18c3.3-9.95,4-10.51,10.6-11.61c12.69-2.21,25.9-11.43,25.9-18.06c0-1.66-1.91-4.61-4.35-6.27
	c-5.91-4.06-17.91-2.4-30.25,4.24l-9.39,5.16l-9.74-4.98C875.29,329.35,863.99,327.87,855.64,331.01z"/>
<g>
	<g>
		<defs>
			<rect id="SVGID_1_" x="968" y="335" width="119" height="115"/>
		</defs>
		<clipPath id="SVGID_00000119832583563255653060000010562222552189839030_">
			<use xlink:href="#SVGID_1_"  style="overflow:visible;"/>
		</clipPath>
		<g style="clip-path:url(#SVGID_00000119832583563255653060000010562222552189839030_);">
			<defs>
				<rect id="SVGID_00000039099385245037551800000010973046550981138608_" x="968" y="335" width="119" height="115"/>
			</defs>
			<clipPath id="SVGID_00000107564574494703476790000017006620406004180865_">
				<use xlink:href="#SVGID_00000039099385245037551800000010973046550981138608_"  style="overflow:visible;"/>
			</clipPath>
			
				<path style="clip-path:url(#SVGID_00000107564574494703476790000017006620406004180865_);fill:none;stroke:#000000;stroke-width:6.8493;stroke-linecap:round;stroke-linejoin:round;stroke-miterlimit:27.293;" d="
				M972.52,338.5l5.45,30.2c-4.22,7.43-6.61,15.91-6.61,24.91c0,29.2,25.14,52.88,56.13,52.88c30.99,0,56.18-23.68,56.18-52.88
				c0-8.72-2.3-16.95-6.27-24.2l5.45-30.15l-22.96,11.14c-9.15-6.1-20.34-9.71-32.39-9.71c-11.7,0-22.57,3.37-31.56,9.15
				L972.52,338.5L972.52,338.5z"/>
			<path style="clip-path:url(#SVGID_00000107564574494703476790000017006620406004180865_);fill:#FFFFFF;" d="M972.52,338.5
				l5.45,30.2c-4.22,7.43-6.61,15.91-6.61,24.91c0,29.2,25.14,52.88,56.13,52.88c30.99,0,56.18-23.68,56.18-52.88
				c0-8.72-2.3-16.95-6.27-24.2l5.45-30.15l-22.96,11.14c-9.15-6.1-20.34-9.71-32.39-9.71c-11.7,0-22.57,3.37-31.56,9.15
				L972.52,338.5L972.52,338.5z"/>
			
				<path style="clip-path:url(#SVGID_00000107564574494703476790000017006620406004180865_);fill:none;stroke:#000000;stroke-width:4.5412;stroke-linecap:round;stroke-linejoin:round;stroke-miterlimit:27.293;" d="
				M972.52,338.5l5.45,30.2c-4.22,7.43-6.61,15.91-6.61,24.91c0,29.2,25.14,52.88,56.13,52.88c30.99,0,56.18-23.68,56.18-52.88
				c0-8.72-2.3-16.95-6.27-24.2l5.45-30.15l-22.96,11.14c-9.15-6.1-20.34-9.71-32.39-9.71c-11.7,0-22.57,3.37-31.56,9.15
				L972.52,338.5L972.52,338.5z"/>
			<path style="clip-path:url(#SVGID_00000107564574494703476790000017006620406004180865_);" d="M1016.87,388.36
				c-2.15,5-7.77,7.23-12.55,4.98c-4.78-2.25-6.91-8.13-4.76-13.12c2.15-5,7.77-7.23,12.55-4.98
				C1016.89,377.49,1019.02,383.36,1016.87,388.36"/>
			<path style="clip-path:url(#SVGID_00000107564574494703476790000017006620406004180865_);fill:#FFFFFF;" d="M1014.42,385.43
				c-0.85,1.98-3.08,2.86-4.97,1.97c-1.89-0.89-2.74-3.22-1.89-5.2c0.85-1.98,3.08-2.86,4.97-1.97
				C1014.43,381.13,1015.27,383.45,1014.42,385.43"/>
			<path style="clip-path:url(#SVGID_00000107564574494703476790000017006620406004180865_);" d="M1055.84,388.28
				c-2.15,5-7.77,7.23-12.55,4.98c-4.78-2.25-6.91-8.13-4.76-13.12c2.15-5,7.77-7.23,12.55-4.98
				C1055.86,377.41,1058,383.28,1055.84,388.28"/>
			<path style="clip-path:url(#SVGID_00000107564574494703476790000017006620406004180865_);fill:#FFFFFF;" d="M1053.39,385.35
				c-0.85,1.98-3.08,2.86-4.97,1.97c-1.89-0.89-2.74-3.22-1.89-5.2c0.85-1.98,3.08-2.86,4.97-1.97
				C1053.4,381.04,1054.25,383.37,1053.39,385.35"/>
			
				<path style="clip-path:url(#SVGID_00000107564574494703476790000017006620406004180865_);fill:none;stroke:#000000;stroke-width:3.1826;stroke-linecap:round;stroke-linejoin:round;stroke-miterlimit:27.293;" d="
				M1001.29,413.86c0.8,6.36,4.42,12.88,12.45,13.02c10.67,0.18,19.41-11.97,21.97-20.48c-5.87-0.89-11.74-0.84-17.61-0.27
				c2.57,8.1,11.63,20.6,20.54,20.75c8.55,0.14,11.49-5.73,12.45-13.02"/>
		</g>
	</g>
</g>
<g>
	<g>
		<defs>
			<rect id="SVGID_00000075882799074209823930000003464535753710373763_" x="232" y="321" width="159" height="156"/>
		</defs>
		<clipPath id="SVGID_00000036938076302901062860000009244895664989735812_">
			<use xlink:href="#SVGID_00000075882799074209823930000003464535753710373763_"  style="overflow:visible;"/>
		</clipPath>
		<g style="clip-path:url(#SVGID_00000036938076302901062860000009244895664989735812_);">
			<defs>
				<path id="SVGID_00000085246059227704311340000008083858993848326541_" d="M323.49,346.74c11.61,2.4,20.16,8.05,21.37,14.76
					c8.49-1.19,14.47-4.27,14.47-7.86c0-4.68-10.08-8.46-22.61-8.46C331.82,345.18,327.24,345.74,323.49,346.74"/>
			</defs>
			<clipPath id="SVGID_00000021092842643464210400000004839511734841496966_">
				<use xlink:href="#SVGID_00000085246059227704311340000008083858993848326541_"  style="overflow:visible;"/>
			</clipPath>
			
				<linearGradient id="SVGID_00000142168243806239565190000008016295488641998773_" gradientUnits="userSpaceOnUse" x1="12.5748" y1="-0.9288" x2="12.8875" y2="-0.9288" gradientTransform="matrix(13.0815 61.1473 176.242 -8.1371 338.0047 -435.2728)">
				<stop  offset="0" style="stop-color:#FFFDFF"/>
				<stop  offset="1" style="stop-color:#FFFFFF"/>
			</linearGradient>
			
				<polygon style="clip-path:url(#SVGID_00000021092842643464210400000004839511734841496966_);fill:url(#SVGID_00000142168243806239565190000008016295488641998773_);" points="
				358.98,343.57 362.85,361.34 323.84,363.11 319.97,345.34 			"/>
		</g>
		<g style="clip-path:url(#SVGID_00000036938076302901062860000009244895664989735812_);">
			<defs>
				<path id="SVGID_00000001660264426299546000000013597519198318161069_" d="M300.66,373.98c0.02-0.05,0.04-0.1,0.06-0.16
					C300.7,373.88,300.67,373.93,300.66,373.98 M300.72,373.82c0.02-0.05,0.05-0.11,0.06-0.15
					C300.76,373.72,300.74,373.77,300.72,373.82 M300.78,373.67C300.78,373.67,300.78,373.67,300.78,373.67
					C300.78,373.67,300.78,373.67,300.78,373.67C300.78,373.66,300.78,373.67,300.78,373.67 M300.78,373.66
					c0.02-0.03,0.02-0.05,0.03-0.08C300.8,373.61,300.79,373.64,300.78,373.66 M300.81,373.59c0.01-0.03,0.02-0.05,0.03-0.08
					C300.83,373.54,300.82,373.57,300.81,373.59 M301.04,366.93c-0.02-0.09-0.05-0.19-0.07-0.28
					C300.99,366.74,301.01,366.84,301.04,366.93 M300.94,366.55c0.01,0.03,0.02,0.06,0.02,0.1c-0.05-0.21-0.1-0.43-0.17-0.64
					C300.85,366.19,300.9,366.37,300.94,366.55 M300.75,365.87c0.02,0.05,0.03,0.1,0.05,0.14
					C300.79,365.96,300.77,365.91,300.75,365.87L300.75,365.87z M288.67,349.86c0.16,0.12,0.35,0.22,0.51,0.34
					c1.56,1,2.89,2.12,4.13,3.34c1.08,1.09,2.1,2.31,3.02,3.62c0.03,0.06,0.06,0.09,0.13,0.16c0.16,0.25,0.35,0.47,0.51,0.72
					c0.03,0.03,0.03,0.06,0.06,0.09c0,0,0,0.03,0.03,0.03c1.34,1.93,2.42,4.02,3.15,6.02c0.2,0.55,0.39,1.12,0.55,1.68l0.22-0.3
					c1.02,1.4,2.48,5.68,2.48,7.8c0,3.03-1.08,5.65-3.88,6.55c3.56,0.66,7.38,1,11.38,1c18.32,0,33.26-7.49,34.06-16.88
					c-2.32-3.71-5.22-7.96-9.76-11.64c-0.51-0.53-0.38-1.15,0.13-1.53c-6.2-3.31-14.85-5.37-24.42-5.37
					C302.44,345.49,294.68,347.15,288.67,349.86"/>
			</defs>
			<clipPath id="SVGID_00000098178587997603228200000003580289412867809471_">
				<use xlink:href="#SVGID_00000001660264426299546000000013597519198318161069_"  style="overflow:visible;"/>
			</clipPath>
			
				<linearGradient id="SVGID_00000080202036545470536850000004639748734741584051_" gradientUnits="userSpaceOnUse" x1="10.1365" y1="-1.6972" x2="10.4504" y2="-1.6972" gradientTransform="matrix(30.0674 70.0435 146.5705 -25.7608 255.9271 -401.9306)">
				<stop  offset="0" style="stop-color:#FFFFFF"/>
				<stop  offset="1" style="stop-color:#FFFFFF"/>
			</linearGradient>
			
				<polygon style="clip-path:url(#SVGID_00000098178587997603228200000003580289412867809471_);fill:url(#SVGID_00000080202036545470536850000004639748734741584051_);" points="
				341.06,336.46 359.42,378.42 292.62,389.94 274.26,347.98 			"/>
		</g>
		<g style="clip-path:url(#SVGID_00000036938076302901062860000009244895664989735812_);">
			<defs>
				<rect id="SVGID_00000006691210973025981620000010640426650813432455_" x="232" y="321" width="159" height="156"/>
			</defs>
			<clipPath id="SVGID_00000109717344862059201840000012746791864477429399_">
				<use xlink:href="#SVGID_00000006691210973025981620000010640426650813432455_"  style="overflow:visible;"/>
			</clipPath>
			<path style="clip-path:url(#SVGID_00000109717344862059201840000012746791864477429399_);" d="M337.7,342.06
				c-6.17,0-11.7,0.5-14.18,1.19c-0.13,0.03-0.29,0.09-0.41,0.19c-3.72-0.75-7.63-1.12-11.58-1.12c-9.29,0-18.09,2.12-25.89,5.96
				c-1.49-0.62-3.05-1.06-4.58-1.15c-4.67-0.34-8.94,0.28-12.53,1.25c-5.57,1.56-9.51,4.09-10.62,5.21
				c-2.48,1.81-3.72,6.36-4.23,11.67c-0.73,8.05,0.13,18.06,0.83,22.12c0,0.19,0.1,0.31,0.13,0.44c-0.76,3.65-1.18,7.49-1.18,11.36
				c0,15.69,6.49,29.89,17.01,40.15c10.53,10.26,24.99,16.63,40.99,16.63s30.53-6.36,40.99-16.63
				c10.46-10.26,17.01-24.46,17.01-40.15c0-9.8-2.54-19-7-26.99l0.35-0.34c1.84-2.06,3.05-4.93,3.63-8.05c0.6-3.03,0.6-6.3,0.1-9.2
				c-0.6-3.46-1.84-6.49-3.72-8.14c-0.03-0.03-0.1-0.09-0.13-0.09c-3.05-2.12-9.51-3.34-16.47-3.84
				C343.46,342.15,340.53,342.06,337.7,342.06 M337.99,344.74c2.67,0,5.44,0.09,8.17,0.31c6.42,0.44,12.43,1.5,15.01,3.31
				c1.37,1.25,2.35,3.68,2.8,6.55c0.45,2.62,0.41,5.62-0.1,8.33c-0.51,2.68-1.49,5.12-2.99,6.77c-1.05,1.15-2.32,1.9-3.91,2.18
				c-3.5,0.53-5.5-2.81-8.3-7.43c-2.48-4.15-5.53-9.11-10.65-13.6c-2.04-1.47-3.85,0.03-2.77,1.19c5.44,4.4,8.52,9.58,11.07,13.76
				c3.37,5.55,5.76,9.58,11.07,8.7c1.08-0.19,2.1-0.53,2.99-1.03c4.07,7.55,6.42,16.19,6.42,25.37c0,14.94-6.17,28.52-16.19,38.31
				c-9.99,9.8-23.82,15.85-39.08,15.85s-29.07-6.05-39.08-15.85c-10.02-9.8-16.19-23.37-16.19-38.31c0-3.68,0.35-7.24,1.08-10.73
				c-0.35-2-0.54-4.18-0.67-5.83v-0.03c-0.45-4.77-0.76-11.42-0.29-17.13c0.41-4.68,1.37-8.58,3.18-9.8
				c0.13-0.09,0.22-0.19,0.32-0.31c0.6-0.75,4.07-3,9.38-4.46c2.67-0.75,5.76-1.25,9.16-1.25c0.76,0,1.59,0.03,2.42,0.09
				c4.8,0.34,9.89,4.37,13.42,9.17c1.46,2,2.64,4.15,3.4,6.18c0.76,2.06,1.14,3.99,0.99,5.74c-0.13,1.81-0.86,3.37-2.35,4.4
				c-2.58,1.81-6.26,0.72-10.43-0.59c-6.49-2-14.15-4.37-22.26,1.68c-2.04,1.44-0.6,3.46,0.64,3.03c7.63-6.18,14.79-3.99,20.8-2.12
				c4.87,1.5,9.13,2.81,12.82,0.22c2.23-1.56,3.28-3.78,3.5-6.36c0.19-2.12-0.29-4.46-1.14-6.86c-0.86-2.31-2.16-4.68-3.75-6.86
				c-2.16-3-4.93-5.65-7.89-7.52c7-3.12,14.72-4.84,22.9-4.84c4.13,0,8.11,0.44,11.96,1.28c1.62-0.66,3.82-0.94,5.76-1.19
				c2.16-0.19,4.77-0.31,7.57-0.31H337.99 M343.87,373.54c-5.34,0-9.67,4.21-9.67,9.48c0,5.24,4.36,9.48,9.67,9.48
				s9.67-4.21,9.67-9.48C353.54,377.78,349.21,373.54,343.87,373.54 M283.58,380.5c-10.43,0-18.92,8.33-18.92,18.5
				c0,10.23,8.49,18.5,18.92,18.5c10.43,0,18.92-8.27,18.92-18.5C302.5,388.77,294.01,380.5,283.58,380.5 M288.79,390.2
				c4.8,0,8.65,3.84,8.65,8.49c0,4.68-3.91,8.49-8.65,8.49c-4.77,0-8.65-3.84-8.65-8.49C280.15,393.98,283.99,390.2,288.79,390.2
				 M336.84,397.56c-0.22,0-0.45,0.03-0.67,0.12l-26.93,7.64c-0.03,0-0.1,0.03-0.13,0.03c-0.76,0.28-1.3,0.97-1.3,1.87
				c0,0.81,0.51,1.5,1.21,1.81l16.6,9.17v0.09c0,2.81-1.27,5.4-3.37,7.24c-2.1,1.9-5.02,3.06-8.3,3.06c-2.04,0-3.98-0.44-5.72-1.34
				c-1.69-0.84-3.12-2.06-4.17-3.56c0-0.03-0.03-0.03-0.03-0.03c-0.32-0.5-0.86-0.81-1.49-0.81c-0.99,0-1.81,0.81-1.81,1.78
				c0,0.41,0.13,0.75,0.35,1.06c1.4,2,3.31,3.59,5.53,4.71c2.23,1.12,4.77,1.75,7.35,1.75c4.17,0,7.98-1.56,10.75-3.99
				c2-1.78,3.43-4.09,4.13-6.68c2.73,2.18,6.26,3.53,10.14,3.53c4.17,0,7.98-1.5,10.75-3.99c2.8-2.53,4.55-5.99,4.55-9.83v-0.59
				v-0.03c0-0.97-0.83-1.78-1.81-1.78c-0.99,0-1.81,0.81-1.81,1.78v0.03v0.09v0.5c0,2.81-1.27,5.4-3.37,7.24
				c-2.1,1.9-5.02,3.06-8.3,3.06c-3.12,0-5.95-1.06-8.01-2.84c-0.45-0.34-0.83-0.75-1.18-1.19l8.87-16.91
				c0.19-0.31,0.29-0.62,0.29-0.97C338.85,398.47,337.93,397.56,336.84,397.56"/>
		</g>
		<g style="clip-path:url(#SVGID_00000036938076302901062860000009244895664989735812_);">
			<defs>
				<path id="SVGID_00000108282303002161711280000010693321086117043855_" d="M259.32,359.41c0,4.67,7.33,8.46,16.38,8.46
					c9.04,0,16.38-3.79,16.38-8.46s-7.33-8.46-16.38-8.46C266.65,350.95,259.32,354.74,259.32,359.41"/>
			</defs>
			<clipPath id="SVGID_00000110450289362297416390000014512697015241518978_">
				<use xlink:href="#SVGID_00000108282303002161711280000010693321086117043855_"  style="overflow:visible;"/>
			</clipPath>
			
				<linearGradient id="SVGID_00000168082858199891639580000017709088045489282474_" gradientUnits="userSpaceOnUse" x1="-26.6416" y1="0.6672" x2="-26.3287" y2="0.6672" gradientTransform="matrix(-6.8393 -27.1849 -69.1597 4.8198 140.6381 -364.0292)">
				<stop  offset="0" style="stop-color:#FFFFFF"/>
				<stop  offset="1" style="stop-color:#FFFFFF"/>
			</linearGradient>
			
				<polygon style="clip-path:url(#SVGID_00000110450289362297416390000014512697015241518978_);fill:url(#SVGID_00000168082858199891639580000017709088045489282474_);" points="
				259.88,370.06 255.05,351.24 291.51,348.75 296.33,367.57 			"/>
		</g>
		<g style="clip-path:url(#SVGID_00000036938076302901062860000009244895664989735812_);">
			<defs>
				<rect id="SVGID_00000029746154840716079010000012649391840645413536_" x="232" y="321" width="159" height="156"/>
			</defs>
			<clipPath id="SVGID_00000124884094409124309050000008478555707217601679_">
				<use xlink:href="#SVGID_00000029746154840716079010000012649391840645413536_"  style="overflow:visible;"/>
			</clipPath>
			<path style="clip-path:url(#SVGID_00000124884094409124309050000008478555707217601679_);fill:#A3A3A3;" d="M299.29,376.16
				c-0.41,0.47-0.89,0.87-1.43,1.25c-1.53,1.06-3.15,1.47-4.87,1.47c-0.67,0-1.3-0.06-2-0.16c2.1,0.78,4.58,1.5,6.2,1.5
				c0.89,0,1.69-0.12,2.39-0.34c-1.65-0.31-3.24-0.66-4.77-1.09c0.19-0.03,0.32-0.09,0.51-0.09c1.21-0.31,2.45-0.97,3.63-2.12
				C299.07,376.44,299.16,376.29,299.29,376.16 M301.04,366.9c0.32,1.4,0.48,2.78,0.35,4.09c-0.06,0.9-0.25,1.75-0.54,2.53
				c0.13-0.34,0.25-0.66,0.35-1.03c0.41-1.47,0.41-3.12,0-4.9C301.13,367.36,301.1,367.11,301.04,366.9"/>
		</g>
		<g style="clip-path:url(#SVGID_00000036938076302901062860000009244895664989735812_);">
			<defs>
				<path id="SVGID_00000057145446665644741160000014799157392685638808_" d="M300.75,365.83c0.1,0.34,0.19,0.72,0.29,1.06
					c0.06,0.22,0.13,0.44,0.16,0.69c0.41,1.78,0.41,3.43,0,4.9c-0.1,0.34-0.22,0.69-0.35,1.03c-0.06,0.16-0.13,0.31-0.19,0.47
					c-0.35,0.78-0.79,1.53-1.37,2.18c-0.1,0.12-0.22,0.28-0.35,0.41c-1.18,1.15-2.42,1.81-3.63,2.12c-0.19,0-0.32,0.06-0.51,0.09
					c1.53,0.44,3.12,0.78,4.77,1.09c2.8-0.9,3.88-3.53,3.88-6.55c0-2.12-1.46-6.4-2.48-7.8L300.75,365.83z"/>
			</defs>
			<clipPath id="SVGID_00000067221334253437610970000012918307161792280246_">
				<use xlink:href="#SVGID_00000057145446665644741160000014799157392685638808_"  style="overflow:visible;"/>
			</clipPath>
			
				<linearGradient id="SVGID_00000012456386787937888690000005970615874276385708_" gradientUnits="userSpaceOnUse" x1="10.1357" y1="-1.3485" x2="10.449" y2="-1.3485" gradientTransform="matrix(30.0674 70.0435 146.5705 -25.7608 184.549 -389.3854)">
				<stop  offset="0" style="stop-color:#A3A3A3"/>
				<stop  offset="1" style="stop-color:#A3A3A3"/>
			</linearGradient>
			
				<polygon style="clip-path:url(#SVGID_00000067221334253437610970000012918307161792280246_);fill:url(#SVGID_00000012456386787937888690000005970615874276385708_);" points="
				302.85,364.14 309.29,378.87 295.41,381.26 288.97,366.53 			"/>
		</g>
		<g style="clip-path:url(#SVGID_00000036938076302901062860000009244895664989735812_);">
			<defs>
				<rect id="SVGID_00000122686527553761362030000003034751342116961178_" x="232" y="321" width="159" height="156"/>
			</defs>
			<clipPath id="SVGID_00000003796698115057413390000015695407591980756870_">
				<use xlink:href="#SVGID_00000122686527553761362030000003034751342116961178_"  style="overflow:visible;"/>
			</clipPath>
			<path style="clip-path:url(#SVGID_00000003796698115057413390000015695407591980756870_);fill:#080808;" d="M300.66,373.98
				c-0.57,1.28-1.46,2.37-2.77,3.28c-1.56,1.12-3.21,1.56-4.96,1.56c-0.73,0-1.49-0.09-2.29-0.22c0.13,0.03,0.22,0.09,0.35,0.12
				c0.67,0.09,1.34,0.16,2,0.16c1.72,0,3.34-0.41,4.87-1.47c0.54-0.37,1.02-0.81,1.43-1.25
				C299.86,375.51,300.34,374.76,300.66,373.98"/>
			<path style="clip-path:url(#SVGID_00000003796698115057413390000015695407591980756870_);fill:#A3A3A3;" d="M360.38,373.79
				c-0.89,0.5-1.91,0.84-2.99,1.03c-0.48,0.09-0.95,0.12-1.4,0.12c-0.19,0-0.35,0-0.54-0.03c0.6,0.41,1.21,0.78,1.81,0.97
				c0.99,0.31,1.84,0.44,2.64,0.44c0.6,0,1.14-0.06,1.65-0.19C361.17,375.32,360.79,374.54,360.38,373.79"/>
			<path style="clip-path:url(#SVGID_00000003796698115057413390000015695407591980756870_);fill:#080808;" d="M360.41,373.7
				c-0.92,0.5-1.88,0.87-2.96,1.03c-0.64,0.06-1.21,0.12-1.75,0.12h-0.35c0.03,0.03,0.06,0.03,0.1,0.06c0.19,0,0.35,0.03,0.54,0.03
				c0.45,0,0.92-0.03,1.4-0.12c1.08-0.19,2.1-0.53,2.99-1.03c0.41,0.75,0.8,1.53,1.18,2.31h0.06
				C361.27,375.29,360.82,374.45,360.41,373.7"/>
		</g>
	</g>
</g>
<path class="st15" d="M1027.5,443.5c-0.3,4.74-5.18,64.61-58,95c-39.14,22.52-88.85,19.78-127-7"/>
<g>
	<g>
		<path class="st16" d="M1409,273.5c1.93,0,1.93-3,0-3C1407.07,270.5,1407.07,273.5,1409,273.5L1409,273.5z"/>
	</g>
</g>
</svg>
