<?xml version="1.0" encoding="utf-8"?>
<!-- Generator: Adobe Illustrator 26.0.0, SVG Export Plug-In . SVG Version: 6.00 Build 0)  -->
<svg version="1.1" id="Layer_1" xmlns="http://www.w3.org/2000/svg" xmlns:xlink="http://www.w3.org/1999/xlink" x="0px" y="0px"
	 viewBox="0 0 1366 768" style="enable-background:new 0 0 1366 768;" xml:space="preserve">
<style type="text/css">
	.st0{fill:#FFFFFF;stroke:#000000;stroke-miterlimit:10;}
	.st1{clip-path:url(#SVGID_00000022560203017260687110000012631313216055274161_);}
	
		.st2{clip-path:url(#SVGID_00000153703138527013634030000009788592179734960015_);fill:none;stroke:#000000;stroke-width:6.8493;stroke-linecap:round;stroke-linejoin:round;stroke-miterlimit:27.293;}
	.st3{clip-path:url(#SVGID_00000106828134053518939320000008512189493694865574_);fill:#FFFFFF;}
	
		.st4{clip-path:url(#SVGID_00000101103225904551663700000005409287613288385214_);fill:none;stroke:#000000;stroke-width:4.5412;stroke-linecap:round;stroke-linejoin:round;stroke-miterlimit:27.293;}
	.st5{clip-path:url(#SVGID_00000114786321930171528160000003327595472821638537_);}
	.st6{clip-path:url(#SVGID_00000127737518981654582540000007635481339620365978_);fill:#FFFFFF;}
	.st7{clip-path:url(#SVGID_00000021112878074134826530000008436412059832121023_);}
	.st8{clip-path:url(#SVGID_00000023998410862371887100000002119213549251817148_);fill:#FFFFFF;}
	
		.st9{clip-path:url(#SVGID_00000019673705059025083960000018301370144119602838_);fill:none;stroke:#000000;stroke-width:3.1826;stroke-linecap:round;stroke-linejoin:round;stroke-miterlimit:27.293;}
	.st10{clip-path:url(#SVGID_00000005242144824132594340000010711889962132317065_);}
	
		.st11{clip-path:url(#SVGID_00000025437975747506152130000016663825937291408277_);fill:url(#SVGID_00000067924003786877514510000017466348610041051039_);}
	.st12{clip-path:url(#SVGID_00000150066645376451111460000003318665982349156768_);}
	
		.st13{clip-path:url(#SVGID_00000067944346819693513990000017218906607919070596_);fill:url(#SVGID_00000082330796671349914250000003618006076278248106_);}
	.st14{clip-path:url(#SVGID_00000145749368005117604890000003113721249238023592_);}
	.st15{clip-path:url(#SVGID_00000173151293252796065980000007367863173609947521_);}
	.st16{clip-path:url(#SVGID_00000039843059024735742940000000250712199339726243_);}
	
		.st17{clip-path:url(#SVGID_00000106112873530907783520000008140706886910597800_);fill:url(#SVGID_00000176036191246190680220000012187848682584587403_);}
	.st18{clip-path:url(#SVGID_00000146459936903028635390000016365319410144243091_);}
	.st19{clip-path:url(#SVGID_00000030480644411401839220000003050455219544545934_);fill:#A3A3A3;}
	.st20{clip-path:url(#SVGID_00000161621941405184739480000008638523780300263302_);}
	
		.st21{clip-path:url(#SVGID_00000137835244877703703540000017554492248355741599_);fill:url(#SVGID_00000041276436193880516650000014423793124913259440_);}
	.st22{clip-path:url(#SVGID_00000044897005783339165010000003167204756362895753_);}
	.st23{clip-path:url(#SVGID_00000057856688791563877050000005643474583485449615_);fill:#080808;}
	.st24{clip-path:url(#SVGID_00000093858253490557416320000002200676132465082800_);fill:#A3A3A3;}
	.st25{clip-path:url(#SVGID_00000156578601685490194260000016571382176842072504_);fill:#080808;}
	.st26{fill:#FFFFFF;stroke:#000000;stroke-width:5;stroke-miterlimit:10;}
	.st27{fill:#FFFFFF;}
</style>
<path class="st0" d="M169.6,332.4c-6.4,7-8.5,16.8-6.4,30.8c1.5,10,1.3,11-8,35.6c-11.2,29.6-18.3,43.2-25.8,51
	c-5.4,5.4-5.7,5.4-8,1.8c-2.7-4.4-1.7-14.8,2.2-22c2.3-4.2,3.7-4.8,8.5-3.6c7,1.4,7.2,0,0.7-4c-7-4.4-13.9-3.8-18.1,1.6
	c-8.9,11.2-7,27,3.7,32.4c18.3,9.2,28.6-2.2,42.9-47.6c4.9-15.4,6.7-19.4,7.7-16.6c2.2,6.8-13.9,53.4-20.9,60.4
	c-4.4,4.6-4.5,7.6-0.3,4.8c4.5-2.8,9.1-12.4,16.8-35c3.7-11,7-18.6,7.5-17c3.5,11.6,11.1,49.2,10.4,51.4c-1.2,3.6,3.7,0.6,7.7-4.8
	c2.9-3.8,16.8-47.2,24.3-75.6c7.5-28.4,14.9-40.4,23.8-38.4c4.4,1,11.9-2.2,11.9-5c0-0.8-2.5-1.6-5.5-1.6c-3.7,0-9.2,2.8-15.9,8
	c-12.4,9.4-15.2,15.6-27.5,57.6c-12.6,43.6-11.6,42.6-17.8,18c-8.2-32.2-8-29.8-1.3-48.4c3.4-9.4,6-19.8,5.9-23.6
	c0-6.2-0.2-6.2-2.2,2.6C183,357,175.8,377,174.3,377c-2.5,0-1.2-6.4,3.9-18.2c5.9-14.2,6.2-24.6,0.3-29.2
	C175.3,327,174.4,327.2,169.6,332.4z"/>
<path class="st0" d="M514.3,331.5c0.9,1.9,1.7,6.7,1.4,10.7c-0.5,7.6-6.1,27.6-8.5,29.5c-3.3,2.5-3.3-1.5-0.2-11
	c4.2-13.1,5.2-26.1,1.6-29c-6.8-5.5-29.6,8.4-32.2,20c-2.1,9.1-0.2,14.9,7.3,22.1l6.1,5.9l-6.1,17.7c-11.8,33.1-25.2,50.9-38.8,50.9
	c-12.7,0-13.2-4.4-2.6-31.8c17.6-45.4,20.5-69,9.9-80.4c-6.1-6.9-14.8-7-28.9-1c-21.9,9.7-28.7,20.8-17.9,29
	c6.8,5.1,11.3,5.3,18.3,0.4c4.5-2.9,4.9-3.6,1.6-3.8c-3.5,0-13.6-8.4-13.6-11.2c0-0.8,1.6-3,3.5-5.1c3.3-3.4,3.3-3.4,1.9,0.6
	c-1.6,5.3,8.5,13.9,16.2,13.9c4.7-0.2,4.2-0.6-2.4-2.9c-7.8-2.7-8.5-3.4-11-13c-1.4-5.1-1.2-5.3,7.5-4.8c7.5,0.6,9.6,1.7,12.9,7.2
	c8.2,13.3,5.2,35.6-11,77c-9.6,24-10.1,28.8-3.5,31.6c9.2,4,33.2-5.1,45.9-17.5c8-7.6,18.1-25,23.5-40.6c4.2-12.2,8.2-17.5,8.2-11.4
	c0,6.3-15.5,40.6-22.1,49.2c-4.9,6.3-5.2,6.9-1.2,3.2c6.8-6.3,19.5-28.8,23.5-41.7c2.1-7,4.7-10.7,8-11.6
	c18.6-5.7,25.9-9.1,33.2-15.8c4.7-4,7.8-7.8,7-8.4c-1.7-1.3-13.2,4.6-13.2,6.7c0,1-2.1,3.4-4.7,5.7c-4.7,4.2-19.5,5.9-21.9,2.7
	c-0.7-0.8,0.7-7.4,3.3-14.7c5.4-17.1,5.6-28.8,0.7-30.3C513.1,328.5,512.9,329,514.3,331.5z"/>
<path class="st0" d="M637,331.8c-11.1,4.5-26.9,19.2-33.5,30.7c-2.9,5.1-6,9.1-7.2,9.1c-1,0-5.1-1.7-8.8-3.8c-7-4-11.5-12-10-17.5
	c1.2-4-2.3-4.4-7.2-1c-13.3,9.5-0.2,29.8,19.5,29.8c6.2,0,7.6,0.8,7.6,3.8c0,2.5-2.5,4.7-7.6,6.6c-22.4,8.7-33.9,33.8-23.2,49.9
	c6.2,9.3,19.9,14.2,39,14.4c13.5,0.2,17.2-0.6,29.1-6.1c7.6-3.4,15.8-8.5,18.3-11.4l4.3-5.1l-6.6-1.7c-5.8-1.5-7.2-1.1-14,4.9
	c-14.2,12.7-37.3,19.9-47.4,15c-6.4-3.2-12.5-13.3-12.5-20.7c0-13.3,11.7-29.2,26.9-36.4c6.4-3,7.2-4.4,6.4-9.1
	c-0.4-3,0.2-6.3,1.4-6.8c1.2-0.8,2.3,0,2.3,2.1c0,1.9,0.6,5.3,1.2,7.6c1,3.2,0.2,4.7-3.5,6.1c-14.6,5.5-27.1,19.2-29.5,32.2
	c-1.4,8,3.1,21.1,7.4,21.1c1.6,0,1.6-1-0.4-3c-4.1-4.5-3.1-19.5,1.8-28.6c4.7-8.5,17.2-19,24.6-20.7c4.1-1.1,4.5-1.9,3.3-10.2
	l-1.2-8.9l11.5-5.9c17-9.1,30-21.1,30-28.5c0-6.5-4.5-11.8-9.8-11.8C647.3,328,641.8,329.7,637,331.8z"/>
<path class="st0" d="M771.2,336.2c-10.9,7.6-21,18.3-25.1,26.1c-2,3.8-3.4,4.7-6.7,3.8c-8.1-2.4-15.4-6.2-17.4-9.6
	c-2.6-4.7-2.6-17.6,0.2-22.5l2.4-4l-4.7,3.6c-9.5,7.6-13,20.7-7.9,30.6c2.6,5.1,13,10.2,20.4,10.2c2.8,0,5.5,0.5,6.1,1.1
	c0.8,0.5-3,10.5-8.5,22.1c-7.9,16.9-10.7,21.4-14.6,22.3c-14.8,3.5-22.7,11.2-21.5,20.7c1.4,11.8,15,9.8,22.9-3.3
	c2.2-3.6,5.3-6.7,6.7-6.7c3.4,0,3,1.6-2.6,10.7c-2.8,4.2-5.1,8.3-5.1,8.9c0,2.7,9.9-7.8,10.9-11.6c0.8-2.4,2.2-4.4,3.2-4.4
	c1.2,0,9.3,3.3,18,7.2c21.7,10,33.2,10.2,44.7,0.7c4.5-3.6,8.1-7.2,8.1-8.2c0-0.7-2.4,0.7-5.3,3.3c-4.5,4-6.5,4.5-13.6,3.6
	c-10.1-1.3-46-17-46-20.3c0-1.5,7.5,1.3,19.2,6.5c10.7,4.9,21.5,8.9,23.9,8.7c3.4,0,2.8-0.5-2.6-2.4c-8.9-2.9-30.2-12.7-35-16
	c-3.4-2.4-3.2-3.5,4.9-22.7c8.3-20,8.5-20.1,17.2-23.2c10.1-3.5,27.9-17,32.2-24.7C806.3,329.5,790.5,322.6,771.2,336.2z"/>
<path class="st0" d="M855.6,331c-3.5,1.5-8.7,4.4-11.8,6.6c-4.5,3.5-5.4,5.4-5.4,11.4c0,14.9,12.9,20.6,29.2,12.7
	c8-3.9,10.1-6.6,2.6-3.5c-9.2,3.7-19.8-2.6-22.2-13.3c-2.6-10.9,11.8-11.6,31.8-1.5c9.7,5.2,10.6,5.9,8.9,9.4c-1,2-5,12.5-8.7,23.4
	c-12.3,35.4-19.6,52.2-26.4,60.3c-7.5,9-10.6,10-13.4,4.2c-2.4-4.6-0.9-12.9,3.7-19c3-4.1,4.2-4.4,8-2.8c5,2,7.8,0.5,4-2.2
	c-5.7-3.9-15.5-5.5-18.8-3.3c-5.2,3.3-9,11.6-9,18.8c0,12,16.2,21.2,28,16c9.7-4.4,18.2-20.3,32.7-61.6
	c10.3-29.3,11.7-32.4,14.4-32.4c2.1,0,1.9,0.5-7,25.8c-12.7,36.1-19.6,51.4-28,61.4l-8,9.4l6.1-3.7c9.9-5.9,18.4-24,38.2-80.2
	c3.3-10,4-10.5,10.6-11.6c12.7-2.2,25.9-11.4,25.9-18.1c0-1.7-1.9-4.6-4.3-6.3c-5.9-4.1-17.9-2.4-30.2,4.2l-9.4,5.2l-9.7-5
	C875.3,329.4,864,327.9,855.6,331z"/>
<g>
	<g>
		<g>
			<defs>
				<rect id="SVGID_1_" x="968" y="335" width="119" height="115"/>
			</defs>
			<clipPath id="SVGID_00000004517445527525503080000000566700112108274311_">
				<use xlink:href="#SVGID_1_"  style="overflow:visible;"/>
			</clipPath>
			<g style="clip-path:url(#SVGID_00000004517445527525503080000000566700112108274311_);">
				<g>
					<defs>
						<rect id="SVGID_00000051366374628093190290000017790403885740778648_" x="968" y="335" width="119" height="115"/>
					</defs>
					<clipPath id="SVGID_00000002370026167730455400000009670758053664008863_">
						<use xlink:href="#SVGID_00000051366374628093190290000017790403885740778648_"  style="overflow:visible;"/>
					</clipPath>
					
						<path style="clip-path:url(#SVGID_00000002370026167730455400000009670758053664008863_);fill:none;stroke:#000000;stroke-width:6.8493;stroke-linecap:round;stroke-linejoin:round;stroke-miterlimit:27.293;" d="
						M972.5,338.5l5.5,30.2c-4.2,7.4-6.6,15.9-6.6,24.9c0,29.2,25.1,52.9,56.1,52.9c31,0,56.2-23.7,56.2-52.9c0-8.7-2.3-17-6.3-24.2
						l5.4-30.1l-23,11.1c-9.2-6.1-20.3-9.7-32.4-9.7c-11.7,0-22.6,3.4-31.6,9.1L972.5,338.5L972.5,338.5z"/>
				</g>
				<g>
					<defs>
						<rect id="SVGID_00000047778595439101505050000018326286256085257114_" x="968" y="335" width="119" height="115"/>
					</defs>
					<clipPath id="SVGID_00000153665501751384781530000017514115831656940957_">
						<use xlink:href="#SVGID_00000047778595439101505050000018326286256085257114_"  style="overflow:visible;"/>
					</clipPath>
					<path style="clip-path:url(#SVGID_00000153665501751384781530000017514115831656940957_);fill:#FFFFFF;" d="M972.5,338.5
						l5.5,30.2c-4.2,7.4-6.6,15.9-6.6,24.9c0,29.2,25.1,52.9,56.1,52.9c31,0,56.2-23.7,56.2-52.9c0-8.7-2.3-17-6.3-24.2l5.4-30.1
						l-23,11.1c-9.2-6.1-20.3-9.7-32.4-9.7c-11.7,0-22.6,3.4-31.6,9.1L972.5,338.5L972.5,338.5z"/>
				</g>
				<g>
					<defs>
						<rect id="SVGID_00000021842414054756680050000013909474433764628391_" x="968" y="335" width="119" height="115"/>
					</defs>
					<clipPath id="SVGID_00000161611712756363572980000016362207748451469209_">
						<use xlink:href="#SVGID_00000021842414054756680050000013909474433764628391_"  style="overflow:visible;"/>
					</clipPath>
					
						<path style="clip-path:url(#SVGID_00000161611712756363572980000016362207748451469209_);fill:none;stroke:#000000;stroke-width:4.5412;stroke-linecap:round;stroke-linejoin:round;stroke-miterlimit:27.293;" d="
						M972.5,338.5l5.5,30.2c-4.2,7.4-6.6,15.9-6.6,24.9c0,29.2,25.1,52.9,56.1,52.9c31,0,56.2-23.7,56.2-52.9c0-8.7-2.3-17-6.3-24.2
						l5.4-30.1l-23,11.1c-9.2-6.1-20.3-9.7-32.4-9.7c-11.7,0-22.6,3.4-31.6,9.1L972.5,338.5L972.5,338.5z"/>
				</g>
				<g>
					<defs>
						<rect id="SVGID_00000004508060145234790560000004047221315367541667_" x="968" y="335" width="119" height="115"/>
					</defs>
					<clipPath id="SVGID_00000083777415455604298260000008099246633106000062_">
						<use xlink:href="#SVGID_00000004508060145234790560000004047221315367541667_"  style="overflow:visible;"/>
					</clipPath>
					<path style="clip-path:url(#SVGID_00000083777415455604298260000008099246633106000062_);" d="M1016.9,388.4
						c-2.2,5-7.8,7.2-12.5,5c-4.8-2.2-6.9-8.1-4.8-13.1c2.2-5,7.8-7.2,12.5-5C1016.9,377.5,1019,383.4,1016.9,388.4"/>
				</g>
				<g>
					<defs>
						<rect id="SVGID_00000179637820111909835020000013907493728934953351_" x="968" y="335" width="119" height="115"/>
					</defs>
					<clipPath id="SVGID_00000138543010610122051030000004935668469019382971_">
						<use xlink:href="#SVGID_00000179637820111909835020000013907493728934953351_"  style="overflow:visible;"/>
					</clipPath>
					<path style="clip-path:url(#SVGID_00000138543010610122051030000004935668469019382971_);fill:#FFFFFF;" d="M1014.4,385.4
						c-0.8,2-3.1,2.9-5,2c-1.9-0.9-2.7-3.2-1.9-5.2s3.1-2.9,5-2C1014.4,381.1,1015.3,383.5,1014.4,385.4"/>
				</g>
				<g>
					<defs>
						<rect id="SVGID_00000028300153020824208350000002453061812577069975_" x="968" y="335" width="119" height="115"/>
					</defs>
					<clipPath id="SVGID_00000176011310126021987910000004200008526822846352_">
						<use xlink:href="#SVGID_00000028300153020824208350000002453061812577069975_"  style="overflow:visible;"/>
					</clipPath>
					<path style="clip-path:url(#SVGID_00000176011310126021987910000004200008526822846352_);" d="M1055.8,388.3
						c-2.2,5-7.8,7.2-12.6,5s-6.9-8.1-4.8-13.1c2.2-5,7.8-7.2,12.6-5S1058,383.3,1055.8,388.3"/>
				</g>
				<g>
					<defs>
						<rect id="SVGID_00000170257301678687482920000013102112815224004225_" x="968" y="335" width="119" height="115"/>
					</defs>
					<clipPath id="SVGID_00000023980950438460070080000009409514089010981794_">
						<use xlink:href="#SVGID_00000170257301678687482920000013102112815224004225_"  style="overflow:visible;"/>
					</clipPath>
					<path style="clip-path:url(#SVGID_00000023980950438460070080000009409514089010981794_);fill:#FFFFFF;" d="M1053.4,385.4
						c-0.8,2-3.1,2.9-5,2c-1.9-0.9-2.7-3.2-1.9-5.2s3.1-2.9,5-2C1053.4,381,1054.2,383.4,1053.4,385.4"/>
				</g>
				<g>
					<defs>
						<rect id="SVGID_00000035528119606757079770000010674197962405657236_" x="968" y="335" width="119" height="115"/>
					</defs>
					<clipPath id="SVGID_00000158748415579255874100000008779164556715511731_">
						<use xlink:href="#SVGID_00000035528119606757079770000010674197962405657236_"  style="overflow:visible;"/>
					</clipPath>
					
						<path style="clip-path:url(#SVGID_00000158748415579255874100000008779164556715511731_);fill:none;stroke:#000000;stroke-width:3.1826;stroke-linecap:round;stroke-linejoin:round;stroke-miterlimit:27.293;" d="
						M1001.3,413.9c0.8,6.4,4.4,12.9,12.5,13c10.7,0.2,19.4-12,22-20.5c-5.9-0.9-11.7-0.8-17.6-0.3c2.6,8.1,11.6,20.6,20.5,20.8
						c8.6,0.1,11.5-5.7,12.4-13"/>
				</g>
			</g>
		</g>
	</g>
</g>
<g>
	<g>
		<g>
			<defs>
				<rect id="SVGID_00000179623182304224472030000012031309999237392555_" x="232" y="321" width="159" height="156"/>
			</defs>
			<clipPath id="SVGID_00000075865437924231735170000004544537666862509440_">
				<use xlink:href="#SVGID_00000179623182304224472030000012031309999237392555_"  style="overflow:visible;"/>
			</clipPath>
			<g style="clip-path:url(#SVGID_00000075865437924231735170000004544537666862509440_);">
				<g>
					<defs>
						<path id="SVGID_00000158726630105962612440000004207913570398699424_" d="M323.5,346.7c11.6,2.4,20.2,8,21.4,14.8
							c8.5-1.2,14.5-4.3,14.5-7.9c0-4.7-10.1-8.5-22.6-8.5C331.8,345.2,327.2,345.7,323.5,346.7"/>
					</defs>
					<clipPath id="SVGID_00000006706164258210837200000006720399974358221956_">
						<use xlink:href="#SVGID_00000158726630105962612440000004207913570398699424_"  style="overflow:visible;"/>
					</clipPath>
					
						<linearGradient id="SVGID_00000040569583384420820840000010321367711801078677_" gradientUnits="userSpaceOnUse" x1="12.5748" y1="768.9288" x2="12.8875" y2="768.9288" gradientTransform="matrix(13.0815 61.1473 -176.242 8.1371 135691.8594 -6684.5659)">
						<stop  offset="0" style="stop-color:#FFFDFF"/>
						<stop  offset="1" style="stop-color:#FFFFFF"/>
					</linearGradient>
					
						<polygon style="clip-path:url(#SVGID_00000006706164258210837200000006720399974358221956_);fill:url(#SVGID_00000040569583384420820840000010321367711801078677_);" points="
						359,343.6 362.9,361.3 323.8,363.1 320,345.3 					"/>
				</g>
			</g>
		</g>
		<g>
			<defs>
				<rect id="SVGID_00000061468596043211982080000006973996744936951710_" x="232" y="321" width="159" height="156"/>
			</defs>
			<clipPath id="SVGID_00000128452248136225531800000018157977711698323843_">
				<use xlink:href="#SVGID_00000061468596043211982080000006973996744936951710_"  style="overflow:visible;"/>
			</clipPath>
			<g style="clip-path:url(#SVGID_00000128452248136225531800000018157977711698323843_);">
				<g>
					<defs>
						<path id="SVGID_00000095329232618150548160000005375231502778631809_" d="M300.7,374c0,0,0-0.1,0.1-0.2
							C300.7,373.9,300.7,373.9,300.7,374 M300.7,373.8c0,0,0-0.1,0.1-0.1C300.8,373.7,300.7,373.8,300.7,373.8 M300.8,373.7
							L300.8,373.7L300.8,373.7C300.8,373.7,300.8,373.7,300.8,373.7 M300.8,373.7C300.8,373.6,300.8,373.6,300.8,373.7
							C300.8,373.6,300.8,373.6,300.8,373.7 M300.8,373.6C300.8,373.6,300.8,373.5,300.8,373.6C300.8,373.5,300.8,373.6,300.8,373.6
							 M301,366.9c0-0.1,0-0.2-0.1-0.3C301,366.7,301,366.8,301,366.9 M300.9,366.5c0,0,0,0.1,0,0.1c0-0.2-0.1-0.4-0.2-0.6
							C300.9,366.2,300.9,366.4,300.9,366.5 M300.8,365.9c0,0,0,0.1,0,0.1C300.8,366,300.8,365.9,300.8,365.9L300.8,365.9z
							 M288.7,349.9c0.2,0.1,0.4,0.2,0.5,0.3c1.6,1,2.9,2.1,4.1,3.3c1.1,1.1,2.1,2.3,3,3.6c0,0.1,0.1,0.1,0.1,0.2
							c0.2,0.2,0.4,0.5,0.5,0.7c0,0,0,0.1,0.1,0.1c0,0,0,0,0,0c1.3,1.9,2.4,4,3.1,6c0.2,0.5,0.4,1.1,0.5,1.7l0.2-0.3
							c1,1.4,2.5,5.7,2.5,7.8c0,3-1.1,5.6-3.9,6.5c3.6,0.7,7.4,1,11.4,1c18.3,0,33.3-7.5,34.1-16.9c-2.3-3.7-5.2-8-9.8-11.6
							c-0.5-0.5-0.4-1.1,0.1-1.5c-6.2-3.3-14.9-5.4-24.4-5.4C302.4,345.5,294.7,347.1,288.7,349.9"/>
					</defs>
					<clipPath id="SVGID_00000156571794989092907970000000296143293400570534_">
						<use xlink:href="#SVGID_00000095329232618150548160000005375231502778631809_"  style="overflow:visible;"/>
					</clipPath>
					
						<linearGradient id="SVGID_00000109738409454840461560000004363228663403011465_" gradientUnits="userSpaceOnUse" x1="10.1365" y1="769.6972" x2="10.4504" y2="769.6972" gradientTransform="matrix(30.0674 70.0435 -146.5705 25.7608 112822.0703 -20186.2246)">
						<stop  offset="0" style="stop-color:#FFFFFF"/>
						<stop  offset="1" style="stop-color:#FFFFFF"/>
					</linearGradient>
					
						<polygon style="clip-path:url(#SVGID_00000156571794989092907970000000296143293400570534_);fill:url(#SVGID_00000109738409454840461560000004363228663403011465_);" points="
						341.1,336.5 359.4,378.4 292.6,389.9 274.3,348 					"/>
				</g>
			</g>
		</g>
		<g>
			<defs>
				<rect id="SVGID_00000178170625240962067860000015244950599449221259_" x="232" y="321" width="159" height="156"/>
			</defs>
			<clipPath id="SVGID_00000104693042957215549410000014838620132423833765_">
				<use xlink:href="#SVGID_00000178170625240962067860000015244950599449221259_"  style="overflow:visible;"/>
			</clipPath>
			<g style="clip-path:url(#SVGID_00000104693042957215549410000014838620132423833765_);">
				<g>
					<defs>
						<rect id="SVGID_00000147196639944127149830000016629223865561814185_" x="232" y="321" width="159" height="156"/>
					</defs>
					<clipPath id="SVGID_00000093892520237708272280000012154888737457964431_">
						<use xlink:href="#SVGID_00000147196639944127149830000016629223865561814185_"  style="overflow:visible;"/>
					</clipPath>
					<path style="clip-path:url(#SVGID_00000093892520237708272280000012154888737457964431_);" d="M337.7,342.1
						c-6.2,0-11.7,0.5-14.2,1.2c-0.1,0-0.3,0.1-0.4,0.2c-3.7-0.8-7.6-1.1-11.6-1.1c-9.3,0-18.1,2.1-25.9,6c-1.5-0.6-3-1.1-4.6-1.1
						c-4.7-0.3-8.9,0.3-12.5,1.2c-5.6,1.6-9.5,4.1-10.6,5.2c-2.5,1.8-3.7,6.4-4.2,11.7c-0.7,8,0.1,18.1,0.8,22.1
						c0,0.2,0.1,0.3,0.1,0.4c-0.8,3.6-1.2,7.5-1.2,11.4c0,15.7,6.5,29.9,17,40.1c10.5,10.3,25,16.6,41,16.6s30.5-6.4,41-16.6
						c10.5-10.3,17-24.5,17-40.1c0-9.8-2.5-19-7-27l0.4-0.3c1.8-2.1,3-4.9,3.6-8c0.6-3,0.6-6.3,0.1-9.2c-0.6-3.5-1.8-6.5-3.7-8.1
						c0,0-0.1-0.1-0.1-0.1c-3-2.1-9.5-3.3-16.5-3.8C343.5,342.1,340.5,342.1,337.7,342.1 M338,344.7c2.7,0,5.4,0.1,8.2,0.3
						c6.4,0.4,12.4,1.5,15,3.3c1.4,1.2,2.4,3.7,2.8,6.5c0.5,2.6,0.4,5.6-0.1,8.3c-0.5,2.7-1.5,5.1-3,6.8c-1,1.1-2.3,1.9-3.9,2.2
						c-3.5,0.5-5.5-2.8-8.3-7.4c-2.5-4.1-5.5-9.1-10.6-13.6c-2-1.5-3.9,0-2.8,1.2c5.4,4.4,8.5,9.6,11.1,13.8
						c3.4,5.5,5.8,9.6,11.1,8.7c1.1-0.2,2.1-0.5,3-1c4.1,7.5,6.4,16.2,6.4,25.4c0,14.9-6.2,28.5-16.2,38.3
						c-10,9.8-23.8,15.9-39.1,15.9s-29.1-6-39.1-15.9c-10-9.8-16.2-23.4-16.2-38.3c0-3.7,0.4-7.2,1.1-10.7c-0.4-2-0.5-4.2-0.7-5.8v0
						c-0.5-4.8-0.8-11.4-0.3-17.1c0.4-4.7,1.4-8.6,3.2-9.8c0.1-0.1,0.2-0.2,0.3-0.3c0.6-0.8,4.1-3,9.4-4.5c2.7-0.8,5.8-1.2,9.2-1.2
						c0.8,0,1.6,0,2.4,0.1c4.8,0.3,9.9,4.4,13.4,9.2c1.5,2,2.6,4.1,3.4,6.2c0.8,2.1,1.1,4,1,5.7c-0.1,1.8-0.9,3.4-2.4,4.4
						c-2.6,1.8-6.3,0.7-10.4-0.6c-6.5-2-14.1-4.4-22.3,1.7c-2,1.4-0.6,3.5,0.6,3c7.6-6.2,14.8-4,20.8-2.1c4.9,1.5,9.1,2.8,12.8,0.2
						c2.2-1.6,3.3-3.8,3.5-6.4c0.2-2.1-0.3-4.5-1.1-6.9c-0.9-2.3-2.2-4.7-3.8-6.9c-2.2-3-4.9-5.6-7.9-7.5c7-3.1,14.7-4.8,22.9-4.8
						c4.1,0,8.1,0.4,12,1.3c1.6-0.7,3.8-0.9,5.8-1.2c2.2-0.2,4.8-0.3,7.6-0.3L338,344.7 M343.9,373.5c-5.3,0-9.7,4.2-9.7,9.5
						c0,5.2,4.4,9.5,9.7,9.5s9.7-4.2,9.7-9.5C353.5,377.8,349.2,373.5,343.9,373.5 M283.6,380.5c-10.4,0-18.9,8.3-18.9,18.5
						c0,10.2,8.5,18.5,18.9,18.5c10.4,0,18.9-8.3,18.9-18.5S294,380.5,283.6,380.5 M288.8,390.2c4.8,0,8.6,3.8,8.6,8.5
						c0,4.7-3.9,8.5-8.6,8.5c-4.8,0-8.6-3.8-8.6-8.5C280.1,394,284,390.2,288.8,390.2 M336.8,397.6c-0.2,0-0.5,0-0.7,0.1l-26.9,7.6
						c0,0-0.1,0-0.1,0c-0.8,0.3-1.3,1-1.3,1.9c0,0.8,0.5,1.5,1.2,1.8l16.6,9.2v0.1c0,2.8-1.3,5.4-3.4,7.2c-2.1,1.9-5,3.1-8.3,3.1
						c-2,0-4-0.4-5.7-1.3c-1.7-0.8-3.1-2.1-4.2-3.6c0,0,0,0,0,0c-0.3-0.5-0.9-0.8-1.5-0.8c-1,0-1.8,0.8-1.8,1.8
						c0,0.4,0.1,0.8,0.4,1.1c1.4,2,3.3,3.6,5.5,4.7c2.2,1.1,4.8,1.8,7.4,1.8c4.2,0,8-1.6,10.8-4c2-1.8,3.4-4.1,4.1-6.7
						c2.7,2.2,6.3,3.5,10.1,3.5c4.2,0,8-1.5,10.8-4c2.8-2.5,4.5-6,4.5-9.8v-0.6v0c0-1-0.8-1.8-1.8-1.8c-1,0-1.8,0.8-1.8,1.8v0v0.1
						v0.5c0,2.8-1.3,5.4-3.4,7.2c-2.1,1.9-5,3.1-8.3,3.1c-3.1,0-6-1.1-8-2.8c-0.5-0.3-0.8-0.8-1.2-1.2l8.9-16.9
						c0.2-0.3,0.3-0.6,0.3-1C338.9,398.5,337.9,397.6,336.8,397.6"/>
				</g>
			</g>
		</g>
		<g>
			<defs>
				<rect id="SVGID_00000020381583783093580530000001077135257674843786_" x="232" y="321" width="159" height="156"/>
			</defs>
			<clipPath id="SVGID_00000045601680161032077250000015033092682040059798_">
				<use xlink:href="#SVGID_00000020381583783093580530000001077135257674843786_"  style="overflow:visible;"/>
			</clipPath>
			<g style="clip-path:url(#SVGID_00000045601680161032077250000015033092682040059798_);">
				<g>
					<defs>
						<path id="SVGID_00000107549346677790556950000000099454408027010490_" d="M259.3,359.4c0,4.7,7.3,8.5,16.4,8.5
							c9,0,16.4-3.8,16.4-8.5s-7.3-8.5-16.4-8.5S259.3,354.7,259.3,359.4"/>
					</defs>
					<clipPath id="SVGID_00000169536966377177352090000012885757652192972729_">
						<use xlink:href="#SVGID_00000107549346677790556950000000099454408027010490_"  style="overflow:visible;"/>
					</clipPath>
					
						<linearGradient id="SVGID_00000178186301796026108300000005964000560410049665_" gradientUnits="userSpaceOnUse" x1="-26.6416" y1="767.3328" x2="-26.3287" y2="767.3328" gradientTransform="matrix(-6.8393 -27.1849 69.1597 -4.8198 -52974.0117 3337.5771)">
						<stop  offset="0" style="stop-color:#FFFFFF"/>
						<stop  offset="1" style="stop-color:#FFFFFF"/>
					</linearGradient>
					
						<polygon style="clip-path:url(#SVGID_00000169536966377177352090000012885757652192972729_);fill:url(#SVGID_00000178186301796026108300000005964000560410049665_);" points="
						259.9,370.1 255.1,351.2 291.5,348.8 296.3,367.6 					"/>
				</g>
			</g>
		</g>
		<g>
			<defs>
				<rect id="SVGID_00000118376088214774338640000008312825455907789994_" x="232" y="321" width="159" height="156"/>
			</defs>
			<clipPath id="SVGID_00000070814609537573838070000013408921123199632029_">
				<use xlink:href="#SVGID_00000118376088214774338640000008312825455907789994_"  style="overflow:visible;"/>
			</clipPath>
			<g style="clip-path:url(#SVGID_00000070814609537573838070000013408921123199632029_);">
				<g>
					<defs>
						<rect id="SVGID_00000135675623878969948980000011920019214657938350_" x="232" y="321" width="159" height="156"/>
					</defs>
					<clipPath id="SVGID_00000182492305205587009850000014457277031223950733_">
						<use xlink:href="#SVGID_00000135675623878969948980000011920019214657938350_"  style="overflow:visible;"/>
					</clipPath>
					<path style="clip-path:url(#SVGID_00000182492305205587009850000014457277031223950733_);fill:#A3A3A3;" d="M299.3,376.2
						c-0.4,0.5-0.9,0.9-1.4,1.2c-1.5,1.1-3.1,1.5-4.9,1.5c-0.7,0-1.3-0.1-2-0.2c2.1,0.8,4.6,1.5,6.2,1.5c0.9,0,1.7-0.1,2.4-0.3
						c-1.6-0.3-3.2-0.7-4.8-1.1c0.2,0,0.3-0.1,0.5-0.1c1.2-0.3,2.5-1,3.6-2.1C299.1,376.4,299.2,376.3,299.3,376.2 M301,366.9
						c0.3,1.4,0.5,2.8,0.4,4.1c-0.1,0.9-0.2,1.8-0.5,2.5c0.1-0.3,0.2-0.7,0.4-1c0.4-1.5,0.4-3.1,0-4.9
						C301.1,367.4,301.1,367.1,301,366.9"/>
				</g>
			</g>
		</g>
		<g>
			<defs>
				<rect id="SVGID_00000165954789966948584190000013414011001861623682_" x="232" y="321" width="159" height="156"/>
			</defs>
			<clipPath id="SVGID_00000001621549890323453880000005129883633957012875_">
				<use xlink:href="#SVGID_00000165954789966948584190000013414011001861623682_"  style="overflow:visible;"/>
			</clipPath>
			<g style="clip-path:url(#SVGID_00000001621549890323453880000005129883633957012875_);">
				<g>
					<defs>
						<path id="SVGID_00000123428103853628496800000006171904652246273689_" d="M300.8,365.8c0.1,0.3,0.2,0.7,0.3,1.1
							c0.1,0.2,0.1,0.4,0.2,0.7c0.4,1.8,0.4,3.4,0,4.9c-0.1,0.3-0.2,0.7-0.4,1c-0.1,0.2-0.1,0.3-0.2,0.5c-0.4,0.8-0.8,1.5-1.4,2.2
							c-0.1,0.1-0.2,0.3-0.4,0.4c-1.2,1.1-2.4,1.8-3.6,2.1c-0.2,0-0.3,0.1-0.5,0.1c1.5,0.4,3.1,0.8,4.8,1.1c2.8-0.9,3.9-3.5,3.9-6.5
							c0-2.1-1.5-6.4-2.5-7.8L300.8,365.8z"/>
					</defs>
					<clipPath id="SVGID_00000049190843385591115730000010424765094569117859_">
						<use xlink:href="#SVGID_00000123428103853628496800000006171904652246273689_"  style="overflow:visible;"/>
					</clipPath>
					
						<linearGradient id="SVGID_00000114063651870582984970000006833828557482204572_" gradientUnits="userSpaceOnUse" x1="10.1357" y1="769.3484" x2="10.449" y2="769.3484" gradientTransform="matrix(30.0674 70.0435 -146.5705 25.7608 112750.6875 -20173.6797)">
						<stop  offset="0" style="stop-color:#A3A3A3"/>
						<stop  offset="1" style="stop-color:#A3A3A3"/>
					</linearGradient>
					
						<polygon style="clip-path:url(#SVGID_00000049190843385591115730000010424765094569117859_);fill:url(#SVGID_00000114063651870582984970000006833828557482204572_);" points="
						302.9,364.1 309.3,378.9 295.4,381.3 289,366.5 					"/>
				</g>
			</g>
		</g>
		<g>
			<defs>
				<rect id="SVGID_00000054223898875591898360000001015218195485650586_" x="232" y="321" width="159" height="156"/>
			</defs>
			<clipPath id="SVGID_00000075131490973056142380000010570325021994782084_">
				<use xlink:href="#SVGID_00000054223898875591898360000001015218195485650586_"  style="overflow:visible;"/>
			</clipPath>
			<g style="clip-path:url(#SVGID_00000075131490973056142380000010570325021994782084_);">
				<g>
					<defs>
						<rect id="SVGID_00000009573876043171986570000001634367721323176629_" x="232" y="321" width="159" height="156"/>
					</defs>
					<clipPath id="SVGID_00000083085480216115359800000005454544093832125073_">
						<use xlink:href="#SVGID_00000009573876043171986570000001634367721323176629_"  style="overflow:visible;"/>
					</clipPath>
					<path style="clip-path:url(#SVGID_00000083085480216115359800000005454544093832125073_);fill:#080808;" d="M300.7,374
						c-0.6,1.3-1.5,2.4-2.8,3.3c-1.6,1.1-3.2,1.6-5,1.6c-0.7,0-1.5-0.1-2.3-0.2c0.1,0,0.2,0.1,0.4,0.1c0.7,0.1,1.3,0.2,2,0.2
						c1.7,0,3.3-0.4,4.9-1.5c0.5-0.4,1-0.8,1.4-1.2C299.9,375.5,300.3,374.8,300.7,374"/>
				</g>
				<g>
					<defs>
						<rect id="SVGID_00000059300317674723908730000012759918794580440511_" x="232" y="321" width="159" height="156"/>
					</defs>
					<clipPath id="SVGID_00000116212198279698774860000002335638891855480198_">
						<use xlink:href="#SVGID_00000059300317674723908730000012759918794580440511_"  style="overflow:visible;"/>
					</clipPath>
					<path style="clip-path:url(#SVGID_00000116212198279698774860000002335638891855480198_);fill:#A3A3A3;" d="M360.4,373.8
						c-0.9,0.5-1.9,0.8-3,1c-0.5,0.1-1,0.1-1.4,0.1c-0.2,0-0.4,0-0.5,0c0.6,0.4,1.2,0.8,1.8,1c1,0.3,1.8,0.4,2.6,0.4
						c0.6,0,1.1-0.1,1.6-0.2C361.2,375.3,360.8,374.5,360.4,373.8"/>
				</g>
				<g>
					<defs>
						<rect id="SVGID_00000093167457769116952410000009625385067271650747_" x="232" y="321" width="159" height="156"/>
					</defs>
					<clipPath id="SVGID_00000072984069239027213810000009618751118056255890_">
						<use xlink:href="#SVGID_00000093167457769116952410000009625385067271650747_"  style="overflow:visible;"/>
					</clipPath>
					<path style="clip-path:url(#SVGID_00000072984069239027213810000009618751118056255890_);fill:#080808;" d="M360.4,373.7
						c-0.9,0.5-1.9,0.9-3,1c-0.6,0.1-1.2,0.1-1.8,0.1h-0.4c0,0,0.1,0,0.1,0.1c0.2,0,0.4,0,0.5,0c0.5,0,0.9,0,1.4-0.1
						C358.5,374.6,359.5,374.3,360.4,373.7c0.4,0.8,0.8,1.6,1.1,2.4h0.1C361.3,375.3,360.8,374.5,360.4,373.7"/>
				</g>
			</g>
		</g>
	</g>
</g>
<path class="st26" d="M1027.5,443.5c-0.3,4.7-5.2,64.6-58,95c-39.1,22.5-88.8,19.8-127-7"/>
<g>
	<g>
		<path class="st27" d="M1409,273.5c1.9,0,1.9-3,0-3S1407.1,273.5,1409,273.5L1409,273.5z"/>
	</g>
</g>
</svg>
