<svg width="407" height="117" viewBox="0 0 407 117" fill="none" xmlns="http://www.w3.org/2000/svg">
<g filter="url(#filter0_d_6_24)">
<path d="M77.8359 30.125V87H64.1641L44.0469 51.6094V87H30.3359V30.125H44.0469L64.1641 65.5156V30.125H77.8359ZM167.797 73.6016L179.633 30.125H194.984L175.805 87H165.883L167.797 73.6016ZM157.055 30.125L168.891 73.6016L170.883 87H160.844L141.781 30.125H157.055ZM238.305 76.4531V87H207.992V76.4531H238.305ZM212.875 30.125V87H199.164V30.125H212.875ZM234.398 52.7031V62.8984H207.992V52.7031H234.398ZM238.422 30.125V40.7109H207.992V30.125H238.422ZM281.508 76.4531V87H252.758V76.4531H281.508ZM257.641 30.125V87H243.93V30.125H257.641ZM306.781 30.125V87H293.07V30.125H306.781ZM323.891 30.125V40.7109H276.352V30.125H323.891ZM340.648 30.125L351.117 54.8125L361.625 30.125H376.391L358.109 66.5703V87H344.164V66.5703L325.844 30.125H340.648Z" fill="#FFFDF1"/>
</g>
<g filter="url(#filter1_d_6_24)">
<path d="M137.399 63.7044L140 63.1011L139.234 59.7974L137.161 60.2782C136.909 58.4931 136.463 56.7207 135.834 54.9998C137.7 49.7249 137.901 43.6154 136.388 37.6745L135.961 36L134.295 36.4579C133.587 36.6526 127.445 38.401 124.505 41.2283C124.077 40.9807 123.643 40.746 123.201 40.5271C120.259 39.0692 117.163 38.3297 114 38.3297C110.837 38.3297 107.741 39.069 104.798 40.5271C104.357 40.746 103.923 40.9808 103.495 41.2283C100.555 38.401 94.4127 36.6527 93.7043 36.4579L92.0382 36L91.6116 37.6746C90.0982 43.6155 90.2999 49.725 92.1652 54.9999C91.5367 56.7208 91.0903 58.4932 90.8388 60.2782L88.7662 59.7975L88 63.1013L90.6002 63.7044C90.6093 66.9845 91.2984 70.0019 92.6288 72.6721L88 73.7454L88.7662 77.0491L94.5355 75.711C95.4088 76.8406 96.4227 77.8843 97.5741 78.8325C101.406 81.9879 106.587 83.8517 112.304 84.1593V72.9799C110.128 71.9887 107.985 69.4078 107.985 67.3548C107.985 63.9597 111.75 63.9598 114 63.9598C116.25 63.9598 120.015 63.9597 120.015 67.3548C120.015 69.4079 117.871 71.9888 115.695 72.9799V84.1593C121.413 83.8516 126.594 81.9879 130.425 78.8325C131.577 77.8843 132.591 76.8406 133.464 75.7109L139.234 77.0491L140 73.7454L135.371 72.6718C136.701 70.0018 137.39 66.9843 137.399 63.7044ZM108.44 58.6958C107.231 58.6958 106.247 57.7023 106.247 56.4769C106.247 55.2513 107.231 54.2587 108.44 54.2587C109.65 54.2587 110.634 55.2513 110.634 56.4769C110.634 57.7024 109.65 58.6958 108.44 58.6958ZM119.544 58.7124C118.323 58.7124 117.333 57.7116 117.333 56.4769C117.333 55.2422 118.323 54.2414 119.544 54.2414C120.763 54.2414 121.753 55.2422 121.753 56.4769C121.753 57.7115 120.763 58.7124 119.544 58.7124Z" fill="#FFFDF1"/>
</g>
<defs>
<filter id="filter0_d_6_24" x="0.335938" y="0.125" width="406.055" height="116.875" filterUnits="userSpaceOnUse" color-interpolation-filters="sRGB">
<feFlood flood-opacity="0" result="BackgroundImageFix"/>
<feColorMatrix in="SourceAlpha" type="matrix" values="0 0 0 0 0 0 0 0 0 0 0 0 0 0 0 0 0 0 127 0" result="hardAlpha"/>
<feOffset/>
<feGaussianBlur stdDeviation="15"/>
<feComposite in2="hardAlpha" operator="out"/>
<feColorMatrix type="matrix" values="0 0 0 0 1 0 0 0 0 0.741176 0 0 0 0 0.34902 0 0 0 1 0"/>
<feBlend mode="normal" in2="BackgroundImageFix" result="effect1_dropShadow_6_24"/>
<feBlend mode="normal" in="SourceGraphic" in2="effect1_dropShadow_6_24" result="shape"/>
</filter>
<filter id="filter1_d_6_24" x="58" y="6" width="112" height="108.159" filterUnits="userSpaceOnUse" color-interpolation-filters="sRGB">
<feFlood flood-opacity="0" result="BackgroundImageFix"/>
<feColorMatrix in="SourceAlpha" type="matrix" values="0 0 0 0 0 0 0 0 0 0 0 0 0 0 0 0 0 0 127 0" result="hardAlpha"/>
<feOffset/>
<feGaussianBlur stdDeviation="15"/>
<feComposite in2="hardAlpha" operator="out"/>
<feColorMatrix type="matrix" values="0 0 0 0 1 0 0 0 0 0.741176 0 0 0 0 0.34902 0 0 0 1 0"/>
<feBlend mode="normal" in2="BackgroundImageFix" result="effect1_dropShadow_6_24"/>
<feBlend mode="normal" in="SourceGraphic" in2="effect1_dropShadow_6_24" result="shape"/>
</filter>
</defs>
</svg>
