<?xml version="1.0" encoding="UTF-8" standalone="no"?>
<svg
   xmlns:dc="http://purl.org/dc/elements/1.1/"
   xmlns:cc="http://creativecommons.org/ns#"
   xmlns:rdf="http://www.w3.org/1999/02/22-rdf-syntax-ns#"
   xmlns:svg="http://www.w3.org/2000/svg"
   xmlns="http://www.w3.org/2000/svg"
   viewBox="0 0 1821.3333 1024"
   height="1024"
   width="1821.3333"
   xml:space="preserve"
   id="svg2"
   version="1.1"><metadata
     id="metadata8"><rdf:RDF><cc:Work
         rdf:about=""><dc:format>image/svg+xml</dc:format><dc:type
           rdf:resource="http://purl.org/dc/dcmitype/StillImage" /></cc:Work></rdf:RDF></metadata><defs
     id="defs6"><clipPath
       id="clipPath18"
       clipPathUnits="userSpaceOnUse"><path
         id="path16"
         d="M 0,768 H 1366 V 0 H 0 Z" /></clipPath><clipPath
       id="clipPath46"
       clipPathUnits="userSpaceOnUse"><path
         id="path44"
         d="m 968,318 h 119 V 433 H 968 Z" /></clipPath><linearGradient
       id="linearGradient112"
       spreadMethod="pad"
       gradientTransform="matrix(4.1599169,-19.077958,-56.044955,-2.5387753,339.48542,426.80516)"
       gradientUnits="userSpaceOnUse"
       y2="0"
       x2="1"
       y1="0"
       x1="0"><stop
         id="stop108"
         offset="0"
         style="stop-opacity:1;stop-color:#fffdff" /><stop
         id="stop110"
         offset="1"
         style="stop-opacity:1;stop-color:#ffffff" /></linearGradient><linearGradient
       id="linearGradient132"
       spreadMethod="pad"
       gradientTransform="matrix(9.5614329,-21.853573,-46.609416,-8.0373696,313.38476,416.40239)"
       gradientUnits="userSpaceOnUse"
       y2="0"
       x2="1"
       y1="0"
       x1="0"><stop
         id="stop128"
         offset="0"
         style="stop-opacity:1;stop-color:#ffffff" /><stop
         id="stop130"
         offset="1"
         style="stop-opacity:1;stop-color:#ffffff" /></linearGradient><clipPath
       id="clipPath142"
       clipPathUnits="userSpaceOnUse"><path
         id="path140"
         d="M 232,291 H 390.999 V 447.001 H 232 Z" /></clipPath><linearGradient
       id="linearGradient166"
       spreadMethod="pad"
       gradientTransform="matrix(-2.1748974,8.4816891,21.992783,1.5037776,276.72285,404.57715)"
       gradientUnits="userSpaceOnUse"
       y2="0"
       x2="1"
       y1="0"
       x1="0"><stop
         id="stop162"
         offset="0"
         style="stop-opacity:1;stop-color:#ffffff" /><stop
         id="stop164"
         offset="1"
         style="stop-opacity:1;stop-color:#ffffff" /></linearGradient><clipPath
       id="clipPath176"
       clipPathUnits="userSpaceOnUse"><path
         id="path174"
         d="M 232,291 H 390.999 V 447.001 H 232 Z" /></clipPath><linearGradient
       id="linearGradient200"
       spreadMethod="pad"
       gradientTransform="matrix(9.5614329,-21.853573,-46.609416,-8.0373696,290.68651,412.48829)"
       gradientUnits="userSpaceOnUse"
       y2="0"
       x2="1"
       y1="0"
       x1="0"><stop
         id="stop196"
         offset="0"
         style="stop-opacity:1;stop-color:#a3a3a3" /><stop
         id="stop198"
         offset="1"
         style="stop-opacity:1;stop-color:#a3a3a3" /></linearGradient><clipPath
       id="clipPath210"
       clipPathUnits="userSpaceOnUse"><path
         id="path208"
         d="M 232,291 H 390.999 V 447.001 H 232 Z" /></clipPath><clipPath
       id="clipPath236"
       clipPathUnits="userSpaceOnUse"><path
         id="path234"
         d="M 0,768 H 1366 V 0 H 0 Z" /></clipPath></defs><g
     transform="matrix(1.3333333,0,0,-1.3333333,0,1024)"
     id="g10"><g
       id="g12"><g
         clip-path="url(#clipPath18)"
         id="g14"><g
           transform="translate(169.5955,435.5642)"
           id="g20"><path
             id="path22"
             style="fill:#000000;fill-opacity:1;fill-rule:nonzero;stroke:none"
             d="m 0,0 c -6.365,-7.001 -8.543,-16.802 -6.365,-30.804 1.507,-10.002 1.34,-11.002 -8.041,-35.605 -11.223,-29.604 -18.258,-43.206 -25.796,-51.007 -5.361,-5.401 -5.696,-5.401 -8.041,-1.801 -2.68,4.401 -1.675,14.802 2.178,22.003 2.345,4.201 3.685,4.801 8.543,3.601 7.035,-1.4 7.203,0 0.67,4.001 -7.035,4.4 -13.903,3.8 -18.091,-1.601 -8.878,-11.201 -7.035,-27.003 3.685,-32.404 18.259,-9.201 28.644,2.2 42.883,47.606 4.857,15.403 6.7,19.403 7.705,16.603 2.178,-6.801 -13.903,-53.408 -20.939,-60.409 -4.355,-4.6 -4.522,-7.601 -0.335,-4.8 4.523,2.8 9.046,12.401 16.751,35.005 3.685,11.001 7.036,18.602 7.538,17.002 3.518,-11.602 11.056,-49.207 10.386,-51.407 -1.173,-3.601 3.685,-0.6 7.705,4.8 2.848,3.801 16.751,47.207 24.289,75.611 7.538,28.404 14.908,40.406 23.786,38.405 4.356,-1 11.894,2.201 11.894,5.001 0,0.8 -2.513,1.6 -5.528,1.6 -3.686,0 -9.213,-2.8 -15.914,-8.001 -12.395,-9.401 -15.243,-15.602 -27.471,-57.608 -12.563,-43.606 -11.558,-42.606 -17.756,-18.002 -8.208,32.204 -8.041,29.804 -1.34,48.406 3.35,9.402 6.03,19.803 5.863,23.604 0,6.2 -0.168,6.2 -2.178,-2.601 -2.68,-11.801 -9.883,-31.804 -11.391,-31.804 -2.512,0 -1.172,6.401 3.853,18.202 C 14.406,-12.202 14.741,-1.8 8.878,2.8 5.695,5.401 4.858,5.201 0,0" /></g><g
           transform="translate(514.2759,436.4685)"
           id="g24"><path
             id="path26"
             style="fill:#000000;fill-opacity:1;fill-rule:nonzero;stroke:none"
             d="m 0,0 c 0.941,-1.905 1.646,-6.669 1.411,-10.67 -0.47,-7.622 -6.114,-27.628 -8.465,-29.534 -3.292,-2.477 -3.292,1.525 -0.235,11.052 4.232,13.147 5.173,26.103 1.646,28.961 -6.82,5.526 -29.629,-8.383 -32.215,-20.006 -2.117,-9.146 -0.235,-14.862 7.289,-22.103 l 6.114,-5.906 -6.114,-17.72 c -11.757,-33.154 -25.16,-50.874 -38.799,-50.874 -12.697,0 -13.168,4.382 -2.586,31.82 17.636,45.348 20.457,68.975 9.876,80.407 -6.114,6.859 -14.814,7.05 -28.923,0.953 -21.868,-9.718 -28.687,-20.769 -17.871,-28.962 6.819,-5.145 11.287,-5.335 18.341,-0.381 4.468,2.858 4.938,3.62 1.646,3.811 -3.527,0 -13.638,8.383 -13.638,11.241 0,0.763 1.646,3.049 3.527,5.145 3.292,3.43 3.292,3.43 1.881,-0.572 -1.646,-5.335 8.466,-13.909 16.225,-13.909 4.703,0.191 4.233,0.572 -2.351,2.858 -7.76,2.668 -8.465,3.43 -11.052,12.957 -1.411,5.144 -1.176,5.335 7.525,4.763 7.524,-0.571 9.641,-1.715 12.933,-7.24 8.23,-13.338 5.173,-35.631 -11.052,-76.978 -9.641,-24.008 -10.111,-28.771 -3.527,-31.629 9.17,-4.002 33.155,5.144 45.853,17.529 7.995,7.622 18.106,24.961 23.514,40.585 4.233,12.194 8.23,17.53 8.23,11.432 0,-6.288 -15.519,-40.584 -22.103,-49.159 -4.938,-6.287 -5.173,-6.859 -1.176,-3.239 6.819,6.288 19.517,28.772 23.515,41.728 2.116,7.05 4.702,10.67 7.994,11.623 18.577,5.716 25.866,9.146 33.156,15.815 4.703,4.001 7.76,7.812 7.054,8.383 -1.646,1.334 -13.168,-4.573 -13.168,-6.668 0,-0.953 -2.116,-3.43 -4.703,-5.717 -4.703,-4.192 -19.517,-5.906 -21.868,-2.667 -0.706,0.762 0.705,7.431 3.292,14.671 C 6.584,-11.051 6.819,0.572 1.881,2.096 -1.176,3.049 -1.411,2.477 0,0" /></g><g
           transform="translate(637.0447,436.2056)"
           id="g28"><path
             id="path30"
             style="fill:#000000;fill-opacity:1;fill-rule:nonzero;stroke:none"
             d="m 0,0 c -11.08,-4.553 -26.88,-19.162 -33.446,-30.735 -2.873,-5.122 -5.951,-9.106 -7.182,-9.106 -1.026,0 -5.129,1.707 -8.823,3.794 -6.976,3.984 -11.49,11.952 -10.054,17.454 1.231,3.985 -2.257,4.364 -7.182,0.949 -13.337,-9.486 -0.205,-29.786 19.493,-29.786 6.156,0 7.592,-0.759 7.592,-3.795 0,-2.466 -2.462,-4.743 -7.592,-6.64 -22.365,-8.727 -33.856,-33.77 -23.186,-49.896 6.155,-9.297 19.903,-14.229 38.986,-14.419 13.542,-0.19 17.236,0.569 29.137,6.071 7.592,3.415 15.8,8.537 18.262,11.383 l 4.309,5.123 -6.566,1.707 c -5.746,1.518 -7.182,1.138 -13.953,-4.933 -14.158,-12.711 -37.345,-19.92 -47.399,-14.988 -6.361,3.226 -12.517,13.281 -12.517,20.68 0,13.28 11.696,29.217 26.88,36.426 6.361,3.036 7.182,4.364 6.361,9.107 -0.41,3.036 0.205,6.261 1.436,6.83 1.232,0.759 2.257,0 2.257,-2.087 0,-1.897 0.616,-5.312 1.232,-7.589 1.026,-3.225 0.205,-4.743 -3.489,-6.071 -14.568,-5.502 -27.085,-19.162 -29.547,-32.252 -1.436,-7.969 3.078,-21.059 7.387,-21.059 1.641,0 1.641,0.948 -0.411,3.035 -4.103,4.553 -3.077,19.541 1.847,28.648 4.72,8.537 17.236,18.972 24.623,20.679 4.104,1.139 4.514,1.898 3.283,10.245 l -1.231,8.917 11.491,5.882 c 17.03,9.106 29.957,21.059 29.957,28.458 0,6.45 -4.514,11.762 -9.849,11.762 C 10.259,3.794 4.719,2.087 0,0" /></g><g
           transform="translate(771.2442,431.8205)"
           id="g32"><path
             id="path34"
             style="fill:#000000;fill-opacity:1;fill-rule:nonzero;stroke:none"
             d="m 0,0 c -10.931,-7.617 -21.052,-18.317 -25.1,-26.115 -2.024,-3.808 -3.441,-4.715 -6.68,-3.808 -8.097,2.357 -15.384,6.166 -17.408,9.611 -2.632,4.716 -2.632,17.592 0.202,22.488 l 2.429,3.99 -4.655,-3.627 c -9.514,-7.617 -12.955,-20.674 -7.895,-30.649 2.632,-5.078 12.955,-10.156 20.445,-10.156 2.834,0 5.465,-0.544 6.072,-1.088 0.81,-0.544 -3.036,-10.518 -8.501,-22.125 -7.895,-16.866 -10.729,-21.4 -14.575,-22.306 -14.776,-3.446 -22.671,-11.244 -21.456,-20.675 1.417,-11.788 14.979,-9.793 22.873,3.265 2.227,3.627 5.263,6.71 6.68,6.71 3.441,0 3.037,-1.632 -2.631,-10.7 -2.834,-4.171 -5.061,-8.342 -5.061,-8.886 0,-2.721 9.919,7.798 10.931,11.606 0.81,2.358 2.227,4.353 3.239,4.353 1.214,0 9.311,-3.265 18.015,-7.254 21.659,-9.975 33.197,-10.156 44.735,-0.726 4.453,3.627 8.097,7.254 8.097,8.161 0,0.725 -2.429,-0.725 -5.263,-3.264 -4.453,-3.99 -6.478,-4.534 -13.562,-3.627 -10.121,1.269 -45.95,17.047 -45.95,20.311 0,1.451 7.49,-1.269 19.23,-6.529 10.729,-4.896 21.457,-8.886 23.886,-8.704 3.441,0 2.834,0.544 -2.632,2.357 -8.906,2.902 -30.16,12.695 -35.018,15.959 -3.441,2.358 -3.239,3.446 4.858,22.669 8.299,19.949 8.501,20.131 17.205,23.214 10.121,3.445 27.934,17.047 32.185,24.664 C 35.019,6.71 19.23,13.602 0,0" /></g><g
           transform="translate(855.6415,436.9919)"
           id="g36"><path
             id="path38"
             style="fill:#000000;fill-opacity:1;fill-rule:nonzero;stroke:none"
             d="m 0,0 c -3.477,-1.475 -8.692,-4.424 -11.822,-6.635 -4.52,-3.503 -5.389,-5.346 -5.389,-11.428 0,-14.93 12.865,-20.644 29.206,-12.718 7.997,3.87 10.083,6.635 2.608,3.502 -9.214,-3.687 -19.818,2.58 -22.252,13.271 -2.608,10.875 11.821,11.612 31.814,1.474 9.735,-5.161 10.604,-5.898 8.866,-9.4 -1.043,-2.028 -5.042,-12.534 -8.693,-23.409 -12.343,-35.389 -19.644,-52.162 -26.424,-60.272 -7.476,-9.032 -10.605,-9.953 -13.386,-4.239 -2.434,4.608 -0.87,12.902 3.65,18.985 2.956,4.055 4.173,4.423 7.997,2.764 5.042,-2.027 7.823,-0.553 3.999,2.212 -5.737,3.871 -15.472,5.53 -18.776,3.318 -5.215,-3.318 -9.04,-11.612 -9.04,-18.801 0,-11.98 16.168,-21.196 27.99,-16.035 9.735,4.423 18.254,20.275 32.683,61.562 10.257,29.307 11.647,32.44 14.429,32.44 2.086,0 1.912,-0.553 -6.954,-25.804 -12.691,-36.127 -19.644,-51.425 -27.989,-61.379 l -7.997,-9.4 6.085,3.687 c 9.909,5.898 18.427,23.961 38.246,80.178 3.303,9.954 3.998,10.507 10.604,11.613 12.691,2.211 25.903,11.427 25.903,18.063 0,1.659 -1.912,4.608 -4.346,6.267 -5.91,4.055 -17.906,2.396 -30.249,-4.24 L 41.375,-9.585 31.64,-4.608 C 19.645,1.659 8.345,3.133 0,0" /></g></g></g><g
       id="g40"><g
         clip-path="url(#clipPath46)"
         id="g42"><g
           transform="scale(0.1636256,-0.1710597)"
           id="g48"><g
             transform="translate(5943.5444,-2510.8123)"
             id="g50"><path
               id="path52"
               style="fill:none;stroke:#000000;stroke-width:40.93999863;stroke-linecap:round;stroke-linejoin:round;stroke-miterlimit:27.29299927;stroke-dasharray:none;stroke-opacity:1"
               d="m 0,0 33.291,176.56 c -25.783,43.408 -40.425,93.001 -40.425,145.65 0,170.698 153.613,309.129 343.014,309.129 189.402,0 343.315,-138.431 343.315,-309.129 0,-51.001 -14.048,-99.068 -38.344,-141.488 L 674.141,4.456 533.841,69.551 C 477.918,33.899 409.541,12.778 335.876,12.778 c -71.515,0 -137.919,19.725 -192.908,53.504 L 0.033,0 Z" /></g></g><g
           transform="scale(0.1636256,-0.1710597)"
           id="g54"><g
             transform="translate(5943.5444,-2510.8123)"
             id="g56"><path
               id="path58"
               style="fill:#ffffff;fill-opacity:1;fill-rule:nonzero;stroke:none"
               d="m 0,0 33.291,176.56 c -25.783,43.408 -40.425,93.001 -40.425,145.65 0,170.698 153.613,309.129 343.014,309.129 189.402,0 343.315,-138.431 343.315,-309.129 0,-51.001 -14.048,-99.068 -38.344,-141.488 L 674.141,4.456 533.841,69.551 C 477.918,33.899 409.541,12.778 335.876,12.778 c -71.515,0 -137.919,19.725 -192.908,53.504 L 0.033,0 Z" /></g></g><g
           transform="scale(0.1636256,-0.1710597)"
           id="g60"><g
             transform="translate(5943.5444,-2510.8123)"
             id="g62"><path
               id="path64"
               style="fill:none;stroke:#000000;stroke-width:27.1439991;stroke-linecap:round;stroke-linejoin:round;stroke-miterlimit:27.29299927;stroke-dasharray:none;stroke-opacity:1"
               d="m 0,0 33.291,176.56 c -25.783,43.408 -40.425,93.001 -40.425,145.65 0,170.698 153.613,309.129 343.014,309.129 189.402,0 343.315,-138.431 343.315,-309.129 0,-51.001 -14.048,-99.068 -38.344,-141.488 L 674.141,4.456 533.841,69.551 C 477.918,33.899 409.541,12.778 335.876,12.778 c -71.515,0 -137.919,19.725 -192.908,53.504 L 0.033,0 Z" /></g></g><g
           transform="scale(0.1636256,-0.1710597)"
           id="g66"><g
             transform="translate(6214.603,-2219.3193)"
             id="g68"><path
               id="path70"
               style="fill:#000000;fill-opacity:1;fill-rule:nonzero;stroke:none"
               d="m 0,0 c -13.148,29.224 -47.5,42.257 -76.724,29.108 -29.224,-13.148 -42.257,-47.5 -29.108,-76.724 13.148,-29.224 47.5,-42.256 76.724,-29.108 C 0.116,-63.575 13.148,-29.224 0,0" /></g></g><g
           transform="scale(0.1636256,-0.1710597)"
           id="g72"><g
             transform="translate(6199.6299,-2236.4424)"
             id="g74"><path
               id="path76"
               style="fill:#ffffff;fill-opacity:1;fill-rule:nonzero;stroke:none"
               d="M 0,0 C -5.208,11.576 -18.815,16.738 -30.39,11.53 -41.966,6.322 -47.128,-7.285 -41.92,-18.861 -36.712,-30.436 -23.105,-35.599 -11.53,-30.39 0.046,-25.182 5.208,-11.576 0,0" /></g></g><g
           transform="scale(0.1636256,-0.1710597)"
           id="g78"><g
             transform="translate(6452.8042,-2219.804)"
             id="g80"><path
               id="path82"
               style="fill:#000000;fill-opacity:1;fill-rule:nonzero;stroke:none"
               d="m 0,0 c -13.148,29.224 -47.5,42.257 -76.724,29.108 -29.224,-13.148 -42.257,-47.5 -29.108,-76.724 13.148,-29.224 47.5,-42.256 76.724,-29.108 C 0.116,-63.575 13.148,-29.224 0,0" /></g></g><g
           transform="scale(0.1636256,-0.1710597)"
           id="g84"><g
             transform="translate(6437.8315,-2236.929)"
             id="g86"><path
               id="path88"
               style="fill:#ffffff;fill-opacity:1;fill-rule:nonzero;stroke:none"
               d="M 0,0 C -5.208,11.576 -18.815,16.738 -30.39,11.53 -41.966,6.322 -47.128,-7.285 -41.92,-18.861 -36.712,-30.436 -23.105,-35.599 -11.53,-30.39 0.046,-25.182 5.208,-11.576 0,0" /></g></g><g
           transform="scale(0.1636256,-0.1710597)"
           id="g90"><g
             transform="translate(6119.4014,-2070.2998)"
             id="g92"><path
               id="path94"
               style="fill:none;stroke:#000000;stroke-width:19.02300072;stroke-linecap:round;stroke-linejoin:round;stroke-miterlimit:27.29299927;stroke-dasharray:none;stroke-opacity:1"
               d="M 0,0 C 4.913,37.194 27.016,75.295 76.093,76.093 141.321,77.171 194.71,6.1 210.39,-43.635 c -35.881,-5.191 -71.761,-4.908 -107.645,-1.597 15.686,47.343 71.072,120.445 125.529,121.325 52.244,0.845 70.198,-33.505 76.093,-76.094" /></g></g></g></g><g
       id="g96"><g
         id="g98"><g
           id="g104"><g
             id="g106"><path
               id="path114"
               style="fill:url(#linearGradient112);stroke:none"
               d="m 323.489,421.26 c 11.606,-2.403 20.161,-8.049 21.369,-14.758 v 0 c 8.491,1.186 14.469,4.275 14.469,7.863 v 0 c 0,4.679 -10.08,8.455 -22.61,8.455 v 0 c -4.897,0 -9.476,-0.562 -13.228,-1.56" /></g></g></g></g><g
       id="g116"><g
         id="g118"><g
           id="g124"><g
             id="g126"><path
               id="path134"
               style="fill:url(#linearGradient132);stroke:none"
               d="m 288.668,418.14 c 0.158,-0.125 0.349,-0.219 0.508,-0.343 v 0 c 1.558,-0.999 2.894,-2.122 4.134,-3.339 v 0 c 1.082,-1.092 2.099,-2.308 3.021,-3.619 v 0 c 0.032,-0.062 0.064,-0.093 0.127,-0.155 v 0 c 0.159,-0.251 0.35,-0.469 0.51,-0.719 v 0 c 0.031,-0.03 0.031,-0.062 0.063,-0.093 v 0 c 0,0 0,-0.031 0.032,-0.031 v 0 c 1.336,-1.935 2.416,-4.025 3.148,-6.022 v 0 c 0.202,-0.551 0.388,-1.116 0.547,-1.676 v 0 l -0.007,-0.009 c 0.018,-0.047 0.034,-0.095 0.05,-0.144 v 0 c -0.014,0.051 -0.028,0.102 -0.043,0.153 v 0 l 0.216,0.304 c 1.017,-1.404 2.481,-5.679 2.481,-7.801 v 0 c 0,-3.026 -1.082,-5.647 -3.88,-6.552 v 0 c 3.561,-0.655 7.377,-0.998 11.384,-0.998 v 0 c 18.317,0 33.263,7.488 34.058,16.879 v 0 c -2.321,3.713 -5.215,7.956 -9.763,11.638 v 0 c -0.508,0.53 -0.381,1.154 0.127,1.529 v 0 c -6.201,3.306 -14.85,5.366 -24.422,5.366 v 0 c -8.522,0 -16.281,-1.654 -22.291,-4.368 m 12.274,-16.692 c 0.008,-0.032 0.016,-0.063 0.024,-0.095 v 0 c -0.05,0.212 -0.099,0.429 -0.165,0.637 v 0 c 0.05,-0.181 0.098,-0.362 0.141,-0.542 m 0.095,-0.375 c -0.023,0.094 -0.046,0.187 -0.071,0.28 v 0 c 0.023,-0.094 0.046,-0.188 0.071,-0.28 m -0.223,-6.662 0.033,0.08 c -0.017,-0.033 -0.025,-0.056 -0.033,-0.08 m -0.03,-0.076 c 0.015,0.031 0.023,0.053 0.03,0.076 v 0 c -0.01,-0.026 -0.021,-0.051 -0.03,-0.076 m -10e-4,-10e-4 c 0,0 0,0 10e-4,0 v 0 c 0,10e-4 0,10e-4 0,10e-4 v 0 c 0,0 -10e-4,-10e-4 -10e-4,-10e-4 m 0,-10e-4 c 0,10e-4 0,10e-4 0,10e-4 v 0 c 0,0 0,0 0,-10e-4 m -0.062,-0.154 c 0.023,0.054 0.046,0.108 0.062,0.154 v 0 c -0.021,-0.051 -0.042,-0.102 -0.062,-0.154 m -0.065,-0.156 c 0.021,0.052 0.043,0.104 0.065,0.156 v 0 c -0.025,-0.055 -0.049,-0.11 -0.065,-0.156" /></g></g></g></g><g
       id="g136"><g
         clip-path="url(#clipPath142)"
         id="g138"><g
           transform="scale(0.318,-0.312)"
           id="g144"><g
             transform="translate(1059.2595,-1187.2924)"
             id="g146"><path
               id="path148"
               style="fill:#000000;fill-opacity:1;fill-rule:nonzero;stroke:none"
               d="m 0,0 c -0.7,0 -1.4,0.1 -2.1,0.4 l -84.7,24.5 c -0.1,0 -0.3,0.1 -0.4,0.1 -2.4,0.9 -4.1,3.1 -4.1,6 0,2.6 1.6,4.8 3.8,5.8 l 52.2,29.4 v 0.3 c 0,9 -4,17.3 -10.6,23.2 -6.6,6.1 -15.8,9.8 -26.1,9.8 -6.4,0 -12.5,-1.4 -18,-4.3 -5.3,-2.7 -9.8,-6.6 -13.1,-11.4 0,-0.1 -0.1,-0.1 -0.1,-0.1 -1,-1.6 -2.7,-2.6 -4.7,-2.6 -3.1,0 -5.7,2.6 -5.7,5.7 0,1.3 0.4,2.4 1.1,3.4 4.4,6.4 10.4,11.5 17.4,15.1 7,3.6 15,5.6 23.1,5.6 13.1,0 25.1,-5 33.8,-12.8 6.3,-5.7 10.8,-13.1 13,-21.4 C -16.6,83.7 -5.5,88 6.7,88 19.8,88 31.8,83.2 40.5,75.2 49.3,67.1 54.8,56 54.8,43.7 v -1.9 -0.1 c 0,-3.1 -2.6,-5.7 -5.7,-5.7 -3.1,0 -5.7,2.6 -5.7,5.7 v 0.1 0.3 1.6 c 0,9 -4,17.3 -10.6,23.2 -6.6,6.1 -15.8,9.8 -26.1,9.8 -9.8,0 -18.7,-3.4 -25.2,-9.1 -1.4,-1.1 -2.6,-2.4 -3.7,-3.8 L 5.7,9.6 C 6.3,8.6 6.6,7.6 6.6,6.5 6.3,2.9 3.4,0 0,0 m -151.1,-23.6 c 15.1,0 27.2,12.3 27.2,27.2 0,15 -12.3,27.2 -27.2,27.2 -15,0 -27.2,-12.3 -27.2,-27.2 0,-15.1 12.1,-27.2 27.2,-27.2 m -16.4,-31.1 c -32.8,0 -59.5,26.7 -59.5,59.3 0,32.8 26.7,59.3 59.5,59.3 32.8,0 59.5,-26.5 59.5,-59.3 0,-32.8 -26.7,-59.3 -59.5,-59.3 M 22.1,-77 c -16.8,0 -30.4,13.5 -30.4,30.4 0,16.8 13.7,30.4 30.4,30.4 16.7,0 30.4,-13.5 30.4,-30.4 C 52.5,-63.4 38.9,-77 22.1,-77 M 3.6,-169.3 c 8.4,0 17.1,0.3 25.7,1 20.2,1.4 39.1,4.8 47.2,10.6 4.3,4 7.4,11.8 8.8,21 1.4,8.4 1.3,18 -0.3,26.7 -1.6,8.6 -4.7,16.4 -9.4,21.7 -3.3,3.7 -7.3,6.1 -12.3,7 -11,1.7 -17.3,-9 -26.1,-23.8 -7.8,-13.3 -17.4,-29.2 -33.5,-43.6 -6.4,-4.7 -12.1,0.1 -8.7,3.8 17.1,14.1 26.8,30.7 34.8,44.1 10.6,17.8 18.1,30.7 34.8,27.9 3.4,-0.6 6.6,-1.7 9.4,-3.3 12.8,24.2 20.2,51.9 20.2,81.3 0,47.9 -19.4,91.4 -50.9,122.8 -31.4,31.4 -74.9,50.8 -122.9,50.8 -48,0 -91.4,-19.4 -122.9,-50.8 C -234,96.5 -253.4,53 -253.4,5.1 c 0,-11.8 1.1,-23.2 3.4,-34.4 -1.1,-6.4 -1.7,-13.4 -2.1,-18.7 v -0.1 c -1.4,-15.3 -2.4,-36.6 -0.9,-54.9 1.3,-15 4.3,-27.5 10,-31.4 0.4,-0.3 0.7,-0.6 1,-1 1.9,-2.4 12.8,-9.6 29.5,-14.3 8.4,-2.4 18.1,-4 28.8,-4 2.4,0 5,0.1 7.6,0.3 15.1,1.1 31.1,14 42.2,29.4 4.6,6.4 8.3,13.3 10.7,19.8 2.4,6.6 3.6,12.8 3.1,18.4 -0.4,5.8 -2.7,10.8 -7.4,14.1 -8.1,5.8 -19.7,2.3 -32.8,-1.9 -20.4,-6.4 -44.5,-14 -70,5.4 -6.4,4.6 -1.9,11.1 2,9.7 24,-19.8 46.5,-12.8 65.4,-6.8 15.3,4.8 28.7,9 40.3,0.7 7,-5 10.3,-12.1 11,-20.4 0.6,-6.8 -0.9,-14.3 -3.6,-22 -2.7,-7.4 -6.8,-15 -11.8,-22 -6.8,-9.6 -15.5,-18.1 -24.8,-24.1 22,-10 46.3,-15.5 72,-15.5 13,0 25.5,1.4 37.6,4.1 5.1,-2.1 12,-3 18.1,-3.8 6.8,-0.6 15,-1 23.8,-1 h 3.9 m -0.9,-8.6 c -19.4,0 -36.8,1.6 -44.6,3.8 -0.4,0.1 -0.9,0.3 -1.3,0.6 -11.7,-2.4 -24,-3.6 -36.4,-3.6 -29.2,0 -56.9,6.8 -81.4,19.1 -4.7,-2 -9.6,-3.4 -14.4,-3.7 -14.7,-1.1 -28.1,0.9 -39.4,4 -17.5,5 -29.9,13.1 -33.4,16.7 -7.8,5.8 -11.7,20.4 -13.3,37.4 -2.3,25.8 0.4,57.9 2.6,70.9 0,0.6 0.3,1 0.4,1.4 -2.4,11.7 -3.7,24 -3.7,36.4 0,50.3 20.4,95.8 53.5,128.7 33.1,32.9 78.6,53.3 128.9,53.3 50.3,0 96,-20.4 128.9,-53.3 32.9,-32.9 53.5,-78.4 53.5,-128.7 0,-31.4 -8,-60.9 -22,-86.5 l 1.1,-1.1 c 5.8,-6.6 9.6,-15.8 11.4,-25.8 1.9,-9.7 1.9,-20.2 0.3,-29.5 -1.9,-11.1 -5.8,-20.8 -11.7,-26.1 -0.1,-0.1 -0.3,-0.3 -0.4,-0.3 -9.6,-6.8 -29.9,-10.7 -51.8,-12.3 -8.7,-1.1 -17.9,-1.4 -26.8,-1.4" /></g></g></g></g><g
       id="g150"><g
         id="g152"><g
           id="g158"><g
             id="g160"><path
               id="path168"
               style="fill:url(#linearGradient166);stroke:none"
               d="m 259.316,408.593 c 0,-4.67 7.332,-8.456 16.377,-8.456 v 0 c 9.045,0 16.377,3.786 16.377,8.456 v 0 c 0,4.67 -7.332,8.455 -16.377,8.455 v 0 c -9.045,0 -16.377,-3.785 -16.377,-8.455" /></g></g></g></g><g
       id="g170"><g
         clip-path="url(#clipPath176)"
         id="g172"><g
           transform="scale(0.318,-0.312)"
           id="g178"><g
             transform="translate(946.6595,-1285.5924)"
             id="g180"><path
               id="path182"
               style="fill:#a3a3a3;fill-opacity:1;fill-rule:nonzero;stroke:none"
               d="M 0,0 C 1,4.5 1.5,8.9 1.1,13.1 0.9,16 0.3,18.7 -0.6,21.2 -0.2,20.1 0.2,19.1 0.5,17.9 1.8,13.2 1.8,7.9 0.5,2.2 0.3,1.5 0.2,0.7 0,0 m -5.5,29.7 c -1.3,1.5 -2.8,2.8 -4.5,4 -4.8,3.4 -9.9,4.7 -15.3,4.7 -2.1,0 -4.1,-0.2 -6.3,-0.5 6.6,2.5 14.4,4.8 19.5,4.8 2.8,0 5.3,-0.4 7.5,-1.1 -5.2,-1 -10.2,-2.1 -15,-3.5 0.6,-0.1 1,-0.3 1.6,-0.3 3.8,-1 7.7,-3.1 11.4,-6.8 0.4,-0.4 0.7,-0.9 1.1,-1.3" /></g></g></g></g><g
       id="g184"><g
         id="g186"><g
           id="g192"><g
             id="g194"><path
               id="path202"
               style="fill:url(#linearGradient200);stroke:none"
               d="m 300.751,402.166 c 0.096,-0.344 0.191,-0.718 0.286,-1.061 v 0 c 0.064,-0.219 0.128,-0.437 0.16,-0.687 v 0 c 0.413,-1.778 0.413,-3.432 0,-4.898 v 0 c -0.096,-0.344 -0.223,-0.686 -0.35,-1.029 v 0 c -0.063,-0.157 -0.127,-0.313 -0.191,-0.468 v 0 c -0.349,-0.781 -0.795,-1.529 -1.367,-2.185 v 0 c -0.096,-0.125 -0.223,-0.28 -0.35,-0.406 v 0 c -1.177,-1.153 -2.417,-1.808 -3.626,-2.121 v 0 c -0.19,0 -0.317,-0.062 -0.508,-0.093 v 0 c 1.526,-0.437 3.117,-0.781 4.77,-1.092 v 0 c 2.798,0.904 3.88,3.525 3.88,6.552 v 0 c 0,2.121 -1.464,6.395 -2.481,7.799 v 0 z" /></g></g></g></g><g
       id="g204"><g
         clip-path="url(#clipPath210)"
         id="g206"><g
           transform="scale(0.318,-0.312)"
           id="g212"><g
             transform="translate(945.4596,-1262.8923)"
             id="g214"><path
               id="path216"
               style="fill:#080808;fill-opacity:1;fill-rule:nonzero;stroke:none"
               d="m 0,0 c -1.8,4.1 -4.6,7.6 -8.7,10.5 -4.9,3.6 -10.1,5 -15.6,5 -2.3,0 -4.7,-0.3 -7.2,-0.7 0.4,0.1 0.7,0.3 1.1,0.4 2.1,0.3 4.2,0.5 6.3,0.5 5.4,0 10.5,-1.3 15.3,-4.7 C -7.1,9.8 -5.6,8.4 -4.3,7 -2.5,4.9 -1,2.5 0,0" /></g></g><g
           transform="scale(0.318,-0.312)"
           id="g218"><g
             transform="translate(1133.2595,-1263.4924)"
             id="g220"><path
               id="path222"
               style="fill:#a3a3a3;fill-opacity:1;fill-rule:nonzero;stroke:none"
               d="m 0,0 c -2.8,1.6 -6,2.7 -9.4,3.3 -1.5,0.3 -3,0.4 -4.4,0.4 -0.6,0 -1.1,0 -1.7,-0.1 1.9,1.3 3.8,2.5 5.7,3.1 3.1,1 5.8,1.4 8.3,1.4 C 0.4,8.1 2.1,7.9 3.7,7.5 2.5,4.9 1.3,2.4 0,0" /></g></g><g
           transform="scale(0.318,-0.312)"
           id="g224"><g
             transform="translate(1133.3596,-1263.7924)"
             id="g226"><path
               id="path228"
               style="fill:#080808;fill-opacity:1;fill-rule:nonzero;stroke:none"
               d="m 0,0 c -2.9,1.6 -5.9,2.8 -9.3,3.3 -2,0.2 -3.8,0.4 -5.5,0.4 h -1.1 c 0.1,0.1 0.2,0.1 0.3,0.2 0.6,0 1.1,0.1 1.7,0.1 1.4,0 2.9,-0.1 4.4,-0.4 C -6.1,3 -2.9,1.9 -0.1,0.3 1.2,2.7 2.4,5.2 3.6,7.7 H 3.8 C 2.7,5.1 1.3,2.4 0,0" /></g></g></g></g><g
       id="g230"><g
         clip-path="url(#clipPath236)"
         id="g232"><g
           transform="translate(1027.5,324.5)"
           id="g238"><path
             id="path240"
             style="fill:none;stroke:#000000;stroke-width:5;stroke-linecap:butt;stroke-linejoin:miter;stroke-miterlimit:10;stroke-dasharray:none;stroke-opacity:1"
             d="m 0,0 c -0.304,-4.741 -5.183,-64.611 -58,-95 -39.141,-22.521 -88.851,-19.785 -127,7" /></g></g></g></g></svg>