<svg width="356" height="98" viewBox="0 0 356 98" fill="none" xmlns="http://www.w3.org/2000/svg">
<path d="M56.8359 21.125V78H43.1641L23.0469 42.6094V78H9.33594V21.125H23.0469L43.1641 56.5156V21.125H56.8359ZM146.797 64.6016L158.633 21.125H173.984L154.805 78H144.883L146.797 64.6016ZM136.055 21.125L147.891 64.6016L149.883 78H139.844L120.781 21.125H136.055ZM217.305 67.4531V78H186.992V67.4531H217.305ZM191.875 21.125V78H178.164V21.125H191.875ZM213.398 43.7031V53.8984H186.992V43.7031H213.398ZM217.422 21.125V31.7109H186.992V21.125H217.422ZM260.508 67.4531V78H231.758V67.4531H260.508ZM236.641 21.125V78H222.93V21.125H236.641ZM285.781 21.125V78H272.07V21.125H285.781ZM302.891 21.125V31.7109H255.352V21.125H302.891ZM319.648 21.125L330.117 45.8125L340.625 21.125H355.391L337.109 57.5703V78H323.164V57.5703L304.844 21.125H319.648Z" fill="#FF8E1D"/>
<path d="M116.399 54.6248L119 54.0215L118.234 50.7178L116.161 51.1986C115.909 49.4135 115.463 47.641 114.834 45.9202C116.7 40.6452 116.901 34.5357 115.388 28.5948L114.961 26.9203L113.295 27.3783C112.587 27.573 106.445 29.3214 103.505 32.1487C103.077 31.9011 102.643 31.6664 102.201 31.4475C99.259 29.9896 96.1632 29.2501 92.9999 29.2501C89.8366 29.2501 86.7409 29.9894 83.7984 31.4475C83.3568 31.6664 82.9228 31.9012 82.4949 32.1487C79.5545 29.3214 73.4127 27.5731 72.7043 27.3783L71.0382 26.9203L70.6116 28.5949C69.0982 34.5358 69.2999 40.6453 71.1652 45.9203C70.5367 47.6411 70.0903 49.4136 69.8388 51.1986L67.7662 50.7179L67 54.0217L69.6002 54.6248C69.6093 57.9048 70.2984 60.9223 71.6288 63.5924L67 64.6657L67.7662 67.9695L73.5355 66.6314C74.4088 67.761 75.4227 68.8046 76.5741 69.7528C80.4057 72.9083 85.5865 74.772 91.3041 75.0797V63.9003C89.1284 62.909 86.9848 60.3281 86.9848 58.2751C86.9848 54.8801 90.7502 54.8801 92.9998 54.8801C95.2495 54.8801 99.0149 54.8801 99.0149 58.2751C99.0149 60.3282 96.8712 62.9091 94.6955 63.9003V75.0797C100.413 74.7719 105.594 72.9083 109.425 69.7528C110.577 68.8046 111.591 67.761 112.464 66.6313L118.234 67.9695L119 64.6657L114.371 63.5921C115.701 60.9222 116.39 57.9046 116.399 54.6248ZM87.4399 49.6161C86.2311 49.6161 85.2473 48.6226 85.2473 47.3973C85.2473 46.1716 86.2311 45.1791 87.4399 45.1791C88.6503 45.1791 89.6337 46.1716 89.6337 47.3973C89.6337 48.6227 88.6503 49.6161 87.4399 49.6161ZM98.5436 49.6328C97.323 49.6328 96.333 48.632 96.333 47.3973C96.333 46.1626 97.323 45.1618 98.5436 45.1618C99.7625 45.1618 100.753 46.1626 100.753 47.3973C100.753 48.6319 99.7627 49.6328 98.5436 49.6328Z" fill="#FF8E1D"/>
<path d="M51.8359 17.125V74H38.1641L18.0469 38.6094V74H4.33594V17.125H18.0469L38.1641 52.5156V17.125H51.8359ZM141.797 60.6016L153.633 17.125H168.984L149.805 74H139.883L141.797 60.6016ZM131.055 17.125L142.891 60.6016L144.883 74H134.844L115.781 17.125H131.055ZM212.305 63.4531V74H181.992V63.4531H212.305ZM186.875 17.125V74H173.164V17.125H186.875ZM208.398 39.7031V49.8984H181.992V39.7031H208.398ZM212.422 17.125V27.7109H181.992V17.125H212.422ZM255.508 63.4531V74H226.758V63.4531H255.508ZM231.641 17.125V74H217.93V17.125H231.641ZM280.781 17.125V74H267.07V17.125H280.781ZM297.891 17.125V27.7109H250.352V17.125H297.891ZM314.648 17.125L325.117 41.8125L335.625 17.125H350.391L332.109 53.5703V74H318.164V53.5703L299.844 17.125H314.648Z" fill="#040B1A"/>
<path d="M111.399 50.6248L114 50.0215L113.234 46.7178L111.161 47.1986C110.909 45.4135 110.463 43.641 109.834 41.9202C111.7 36.6452 111.901 30.5357 110.388 24.5948L109.961 22.9203L108.295 23.3783C107.587 23.573 101.445 25.3214 98.5049 28.1487C98.077 27.9011 97.643 27.6664 97.2014 27.4475C94.259 25.9896 91.1632 25.2501 87.9999 25.2501C84.8366 25.2501 81.7409 25.9894 78.7984 27.4475C78.3568 27.6664 77.9228 27.9012 77.4949 28.1487C74.5545 25.3214 68.4127 23.5731 67.7043 23.3783L66.0382 22.9203L65.6116 24.5949C64.0982 30.5358 64.2999 36.6453 66.1652 41.9203C65.5367 43.6411 65.0903 45.4136 64.8388 47.1986L62.7662 46.7179L62 50.0217L64.6002 50.6248C64.6093 53.9048 65.2984 56.9223 66.6288 59.5924L62 60.6657L62.7662 63.9695L68.5355 62.6314C69.4088 63.761 70.4227 64.8046 71.5741 65.7528C75.4057 68.9083 80.5865 70.772 86.3041 71.0797V59.9003C84.1284 58.909 81.9848 56.3281 81.9848 54.2751C81.9848 50.8801 85.7502 50.8801 87.9998 50.8801C90.2495 50.8801 94.0149 50.8801 94.0149 54.2751C94.0149 56.3282 91.8712 58.9091 89.6955 59.9003V71.0797C95.4128 70.7719 100.594 68.9083 104.425 65.7528C105.577 64.8046 106.591 63.761 107.464 62.6313L113.234 63.9695L114 60.6657L109.371 59.5921C110.701 56.9222 111.39 53.9046 111.399 50.6248ZM82.4399 45.6161C81.2311 45.6161 80.2473 44.6226 80.2473 43.3973C80.2473 42.1716 81.2311 41.1791 82.4399 41.1791C83.6503 41.1791 84.6337 42.1716 84.6337 43.3973C84.6337 44.6227 83.6503 45.6161 82.4399 45.6161ZM93.5436 45.6328C92.323 45.6328 91.333 44.632 91.333 43.3973C91.333 42.1626 92.323 41.1618 93.5436 41.1618C94.7625 41.1618 95.7526 42.1626 95.7526 43.3973C95.7527 44.6319 94.7627 45.6328 93.5436 45.6328Z" fill="#040B1A"/>
</svg>
